<svg width="20" height="56" viewBox="0 0 20 56" fill="none" xmlns="http://www.w3.org/2000/svg">
<path d="M10.9702 38.0946V40.3243C11.836 40.3954 12.7374 40.6682 13.6624 41.1426L13.0694 42.72C12.5476 42.4472 12.0495 42.2574 11.5869 42.1388C11.1244 42.0202 10.65 41.9609 10.1875 41.9609C9.49961 41.9609 8.93033 42.1151 8.50338 42.4116C8.06456 42.7081 7.85108 43.1825 7.85108 43.8111C7.85108 44.3922 8.05269 44.8073 8.44407 45.0682C8.84731 45.3173 9.36915 45.5545 10.0214 45.7798L11.0295 46.1119C12.1681 46.4796 13.022 46.954 13.5913 47.5588C14.1487 48.1518 14.4333 48.9227 14.4333 49.8478C14.4333 50.3933 14.3385 50.8796 14.1368 51.3065C13.9352 51.7335 13.6743 52.1012 13.3304 52.4214C12.9983 52.7416 12.595 52.9907 12.1325 53.1804C11.67 53.3702 11.1719 53.4888 10.65 53.5481V55.837H9.07265V53.5481C8.45593 53.5125 7.89852 53.4176 7.41227 53.2753C6.92601 53.133 6.39231 52.9076 5.83489 52.5993L6.59393 51.0219C7.21064 51.3896 7.80365 51.6268 8.36106 51.7454C8.91848 51.864 9.42845 51.9233 9.8554 51.9233C10.5433 51.9233 11.1363 51.7691 11.6344 51.4607C12.1325 51.1524 12.3816 50.6661 12.3816 50.0138C12.3816 49.4208 12.1681 48.9583 11.753 48.6499C11.3379 48.3416 10.7212 48.0569 9.90284 47.8079L8.89475 47.4758C7.96968 47.1674 7.22251 46.7523 6.65323 46.2186C6.08396 45.6968 5.79932 44.9615 5.79932 44.0127C5.79932 42.9097 6.11952 42.0321 6.77182 41.4154C7.41226 40.7868 8.28989 40.431 9.40472 40.3361V38.1065H10.9702V38.0946Z" fill="#8FC651"/>
<path d="M16.8292 12.1919H2.9294C1.31645 12.1919 0 10.8755 0 9.26253C0 7.64958 1.31645 6.33313 2.9294 6.33313H16.8292C18.4422 6.33313 19.7586 7.64958 19.7586 9.26253C19.7586 10.8755 18.4422 12.1919 16.8292 12.1919ZM2.9294 7.50726C1.96875 7.50726 1.18599 8.29002 1.18599 9.25067C1.18599 10.2113 1.96875 10.9941 2.9294 10.9941H16.8292C17.7899 10.9941 18.5726 10.2113 18.5726 9.25067C18.5726 8.29002 17.7899 7.50726 16.8292 7.50726H2.9294Z" fill="#8FC651"/>
<path d="M5.27759 7.50732C4.02044 7.50732 3.00049 6.48737 3.00049 5.23022V2.2771C3.00049 1.01995 4.02044 0 5.27759 0C6.53474 0 7.55469 1.01995 7.55469 2.2771V5.23022C7.55469 6.48737 6.53474 7.50732 5.27759 7.50732ZM5.27759 1.18599C4.67273 1.18599 4.18648 1.67225 4.18648 2.2771V5.23022C4.18648 5.83508 4.67273 6.32133 5.27759 6.32133C5.88244 6.32133 6.3687 5.83508 6.3687 5.23022V2.2771C6.3687 1.67225 5.88244 1.18599 5.27759 1.18599Z" fill="#8FC651"/>
<path d="M14.8845 7.50757C13.6274 7.50757 12.6074 6.48762 12.6074 5.23047V2.27735C12.6074 1.0202 13.6274 0.000244141 14.8845 0.000244141C16.1417 0.000244141 17.1616 1.0202 17.1616 2.27735V5.23047C17.1616 6.48762 16.1417 7.50757 14.8845 7.50757ZM14.8845 1.18624C14.2797 1.18624 13.7934 1.67249 13.7934 2.27735V5.23047C13.7934 5.83532 14.2797 6.32158 14.8845 6.32158C15.4894 6.32158 15.9757 5.83532 15.9757 5.23047V2.27735C15.9757 1.67249 15.4894 1.18624 14.8845 1.18624Z" fill="#8FC651"/>
<path d="M9.96183 24.8228C5.34832 24.8228 1.60059 21.075 1.60059 16.4615V12.9036C1.60059 11.8599 2.45451 11.006 3.49818 11.006H16.4255C17.4691 11.006 18.3231 11.8599 18.3231 12.9036V16.4615C18.3231 21.0632 14.5753 24.8228 9.96183 24.8228ZM3.49818 12.192C3.1068 12.192 2.78658 12.5122 2.78658 12.9036V16.4615C2.78658 20.4228 6.00062 23.6368 9.96183 23.6368C13.923 23.6368 17.1371 20.4228 17.1371 16.4615V12.9036C17.1371 12.5122 16.8169 12.192 16.4255 12.192H3.49818Z" fill="#8FC651"/>
<path d="M8.70455 24.2301H7.51855V33.7892H8.70455V24.2301Z" fill="#8FC651"/>
<path d="M12.5122 24.2305H11.3262V33.7896H12.5122V24.2305Z" fill="#8FC651"/>
</svg>
