<svg width="317" height="212" viewBox="0 0 317 212" fill="none" xmlns="http://www.w3.org/2000/svg">
<path fill-rule="evenodd" clip-rule="evenodd" d="M156.517 0.19165H160.225V113.47H156.517V0.19165ZM177.335 113.47L200.514 4.40589L204.138 5.16445L181.128 113.47H177.335ZM200.008 113.47L242.656 17.6386L246.112 19.1557L204.138 113.47H200.008ZM227.4 113.47L281.174 39.4684L284.208 41.6598L232.036 113.47H227.4ZM264.57 113.47L314.298 68.7152L316.826 71.4966L270.217 113.47H264.57V113.47ZM46.6095 113.47L0 71.4966L2.52844 68.7152L52.2567 113.47H46.6095V113.47ZM84.7905 113.47L32.6182 41.6598L35.6526 39.4684L89.426 113.47H84.7905ZM112.689 113.47L70.715 19.1557L74.0864 17.6386L116.734 113.47H112.689ZM135.614 113.47L112.604 5.16445L116.229 4.40589L139.407 113.47H135.614Z" fill="#3D3D3D"/>
<path fill-rule="evenodd" clip-rule="evenodd" d="M303.342 128.052C274.011 78.4083 219.9 44.9473 158.372 44.9473C96.8441 44.9473 42.7332 78.4083 13.4021 128.052C42.2275 178.202 96.3384 212 158.372 212C220.406 212 274.516 178.202 303.342 128.052Z" fill="white"/>
<mask id="mask0_108_2" style="mask-type:alpha" maskUnits="userSpaceOnUse" x="13" y="44" width="291" height="168">
<path fill-rule="evenodd" clip-rule="evenodd" d="M303.788 128.052C274.457 78.4083 220.346 44.9473 158.818 44.9473C97.2904 44.9473 43.1795 78.4083 13.8484 128.052C42.6738 178.202 96.7847 212 158.818 212C220.852 212 274.963 178.202 303.788 128.052Z" fill="white"/>
</mask>
<g mask="url(#mask0_108_2)">
<path fill-rule="evenodd" clip-rule="evenodd" d="M212.99 54.8926C253.616 54.8926 286.571 87.8479 286.571 128.473C286.571 169.098 253.616 202.054 212.99 202.054C172.365 202.054 139.41 169.098 139.41 128.473C139.41 87.8479 172.365 54.8926 212.99 54.8926Z" fill="#5C2660"/>
</g>
<path fill-rule="evenodd" clip-rule="evenodd" d="M212.99 105.379C225.801 105.379 236.168 115.746 236.168 128.557C236.168 141.369 225.801 151.736 212.99 151.736C200.179 151.736 189.812 141.369 189.812 128.557C189.812 115.746 200.263 105.379 212.99 105.379Z" fill="black"/>
</svg>
