<svg width="45" height="31" viewBox="0 0 45 31" fill="none" xmlns="http://www.w3.org/2000/svg">
<path d="M27.4206 6.87889L28.7371 0.699879L28.2271 0.59314L26.9106 6.7603C27.0767 6.80773 27.2427 6.84332 27.4206 6.87889Z" fill="#8FC651"/>
<path d="M36.28 10.9353L39.9803 5.83558L39.5533 5.52722L35.853 10.627C36.0072 10.7337 36.1495 10.8286 36.28 10.9353Z" fill="#8FC651"/>
<path d="M32.0575 8.44468L34.6193 2.68076L34.133 2.46729L31.5713 8.2312C31.7492 8.30236 31.9034 8.37352 32.0575 8.44468Z" fill="#8FC651"/>
<path d="M39.9204 14.2325L44.5813 10.0459L44.2255 9.65454L39.5527 13.853C39.6713 13.9834 39.8018 14.102 39.9204 14.2325Z" fill="#8FC651"/>
<path d="M5.01674 13.853L0.355792 9.65454L0 10.0459L4.66094 14.2325C4.76768 14.102 4.89814 13.9834 5.01674 13.853Z" fill="#8FC651"/>
<path d="M8.7171 10.627L5.0168 5.52722L4.58984 5.83558L8.29014 10.9353C8.43246 10.8286 8.57478 10.7337 8.7171 10.627Z" fill="#8FC651"/>
<path d="M22.2848 6.30959C22.3679 6.30959 22.4627 6.32146 22.5458 6.32146V0.00012207H22.0239V6.32146C22.1069 6.32146 22.2018 6.30959 22.2848 6.30959Z" fill="#8FC651"/>
<path d="M12.9863 8.2312L10.4246 2.46729L9.9502 2.68076L12.5119 8.44468C12.6661 8.37352 12.8322 8.30236 12.9863 8.2312Z" fill="#8FC651"/>
<path d="M17.6716 6.77177L16.3552 0.604614L15.8452 0.711354L17.1617 6.89037C17.3277 6.84293 17.4937 6.80735 17.6716 6.77177Z" fill="#8FC651"/>
<path d="M22.2842 30.4087C13.6739 30.4087 5.66845 25.7715 1.37517 18.2998L1.19727 18.0033L1.37517 17.7068C5.75147 10.3181 13.7569 5.72827 22.2842 5.72827C30.8115 5.72827 38.8169 10.3181 43.1932 17.7068L43.3711 18.0033L43.1932 18.2998C38.8999 25.7715 30.8945 30.4087 22.2842 30.4087ZM2.58487 18.0033C6.70026 24.9295 14.2195 29.2228 22.2961 29.2228C30.3608 29.2228 37.88 24.9295 42.0072 18.0033C37.8088 11.1483 30.2896 6.9024 22.2961 6.9024C14.3025 6.9024 6.77142 11.1483 2.58487 18.0033Z" fill="#8FC651"/>
<path d="M22.2844 8.89473C27.3367 8.89473 31.4521 13.0101 31.4521 18.0624C31.4521 23.1148 27.3367 27.2302 22.2844 27.2302C17.232 27.2302 13.1167 23.1148 13.1167 18.0624C13.1167 13.0101 17.232 8.89473 22.2844 8.89473ZM22.2844 7.70874C16.5679 7.70874 11.9307 12.346 11.9307 18.0624C11.9307 23.7789 16.5679 28.4161 22.2844 28.4161C28.0008 28.4161 32.6381 23.7789 32.6381 18.0624C32.6381 12.346 28.0008 7.70874 22.2844 7.70874Z" fill="#8FC651"/>
<path fill-rule="evenodd" clip-rule="evenodd" d="M22.2849 14.8011C24.0876 14.8011 25.5464 16.2599 25.5464 18.0626C25.5464 19.8653 24.0876 21.3241 22.2849 21.3241C20.4822 21.3241 19.0234 19.8653 19.0234 18.0626C19.0234 16.2599 20.4822 14.8011 22.2849 14.8011Z" fill="#8FC651" stroke="#8FC651" stroke-miterlimit="10"/>
</svg>
