<svg width="47" height="31" viewBox="0 0 47 31" fill="none" xmlns="http://www.w3.org/2000/svg">
<path d="M38.6782 12.2078H41.2281" stroke="#8FC651" stroke-miterlimit="10"/>
<path d="M38.6782 16.8684H41.2281" stroke="#8FC651" stroke-miterlimit="10"/>
<path d="M25.478 23.937H29.3088" stroke="#8FC651" stroke-miterlimit="10"/>
<path d="M19.5488 30.4481H35.3581" stroke="#8FC651" stroke-miterlimit="10"/>
<path d="M30.6494 26.665V30.4484" stroke="#8FC651" stroke-miterlimit="10"/>
<path d="M23.9482 26.665V30.4484" stroke="#8FC651" stroke-miterlimit="10"/>
<path d="M35.3579 8.70874V17.1886" stroke="#8FC651" stroke-miterlimit="10"/>
<path d="M33.1279 10.298V17.5681" stroke="#8FC651" stroke-miterlimit="10"/>
<path d="M30.8984 11.1523V17.5686" stroke="#8FC651" stroke-miterlimit="10"/>
<path d="M28.4082 12.6586V17.5686" stroke="#8FC651" stroke-miterlimit="10"/>
<path d="M26.6294 13.548V17.5685" stroke="#8FC651" stroke-miterlimit="10"/>
<path d="M24.3999 11.6387V17.5686" stroke="#8FC651" stroke-miterlimit="10"/>
<path d="M22.2886 12.6586V14.6036" stroke="#8FC651" stroke-miterlimit="10"/>
<path d="M19.5488 11.8878L24.3995 9.53952L26.6292 11.6387L34.7295 6.59827" stroke="#8FC651" stroke-miterlimit="10"/>
<path d="M41.2401 1H13.4168C10.9262 1 8.92188 3.01619 8.92188 5.49491V10.2982C9.58603 10.1559 10.2858 10.0847 10.9974 10.0847C16.5241 10.0847 20.9953 14.5559 20.9953 20.0826C20.9953 22.6088 20.0583 24.9096 18.5284 26.6649H41.252C43.7426 26.6649 45.7469 24.6487 45.7469 22.1699V5.49491C45.7469 3.00433 43.7307 1 41.2401 1Z" stroke="#8FC651" stroke-miterlimit="10"/>
<path d="M8.92241 10.298C4.39193 11.2468 1 15.2673 1 20.0824C1 25.6091 5.47118 30.0803 10.9979 30.0803C13.9985 30.0803 16.6907 28.752 18.5289 26.6647" stroke="#8FC651" stroke-miterlimit="10"/>
<path d="M16.9749 17.9358H13.0493V13.6306H8.92206V17.9358H5.0083V21.9919H8.92206V26.0598H13.0493V21.9919H16.9749V17.9358Z" stroke="#8FC651" stroke-miterlimit="10"/>
<path d="M45.7475 21.7788H22.2886" stroke="#8FC651" stroke-miterlimit="10"/>
</svg>
