<svg width="41" height="16" viewBox="0 0 41 16" fill="none" xmlns="http://www.w3.org/2000/svg">
<path d="M1 6.99999C0.447718 6.99999 1.32262e-06 7.44771 0 7.99999C-1.26302e-06 8.55228 0.447713 8.99999 0.999998 8.99999L1 6.99999ZM40.7071 8.7072C41.0976 8.31667 41.0976 7.68351 40.7071 7.29298L34.3432 0.929006C33.9526 0.53848 33.3195 0.538479 32.9289 0.929002C32.5384 1.31953 32.5384 1.95269 32.9289 2.34322L38.5858 8.00008L32.9289 13.6569C32.5384 14.0474 32.5384 14.6806 32.9289 15.0711C33.3194 15.4617 33.9526 15.4617 34.3431 15.0711L40.7071 8.7072ZM0.999998 8.99999L40 9.00009L40 7.00009L1 6.99999L0.999998 8.99999Z" fill="black"/>
</svg>
