<svg width="602" height="332" viewBox="0 0 602 332" fill="none" xmlns="http://www.w3.org/2000/svg">
<path d="M286.859 248.8H263.372V269.808H286.859V248.8Z" stroke="white" stroke-miterlimit="10"/>
<path d="M285.553 249.675H264.676V268.64H285.553V249.675Z" stroke="white" stroke-miterlimit="10"/>
<path d="M279.097 254.638H271.132C269.728 254.638 268.59 255.694 268.59 256.997V261.033C268.59 262.335 269.728 263.391 271.132 263.391H279.097C280.501 263.391 281.639 262.335 281.639 261.033V256.997C281.639 255.694 280.501 254.638 279.097 254.638Z" stroke="white" stroke-miterlimit="10"/>
<path d="M238.578 187.529V276.872C238.578 280.183 240.047 283.359 242.663 285.7C245.278 288.041 248.826 289.357 252.525 289.357H261.167C264.866 289.357 268.413 288.041 271.029 285.7C273.644 283.359 275.114 280.183 275.114 276.872V259.272" stroke="white" stroke-miterlimit="10"/>
<path d="M550.436 207.078H38.9385V214.081H550.436V207.078Z" stroke="white" stroke-miterlimit="10"/>
<path d="M49.3989 330.786H40.896L78.7171 214.079H87.2178L49.3989 330.786Z" stroke="white" stroke-miterlimit="10"/>
<path d="M121.39 330.786H129.95L91.8628 214.079H83.3022L121.39 330.786Z" stroke="white" stroke-miterlimit="10"/>
<path d="M100.267 250.257H71.2339V255.217H100.267V250.257Z" stroke="white" stroke-miterlimit="10"/>
<path d="M118.86 304.819H54.5962V310.071H118.86V304.819Z" stroke="white" stroke-miterlimit="10"/>
<path d="M467.987 330.786H459.424L497.511 214.079H506.072L467.987 330.786Z" stroke="white" stroke-miterlimit="10"/>
<path d="M540.304 330.786H548.805L510.984 214.079H502.483L540.304 330.786Z" stroke="white" stroke-miterlimit="10"/>
<path d="M518.793 250.257H490.086V255.217H518.793V250.257Z" stroke="white" stroke-miterlimit="10"/>
<path d="M537.713 304.819H473.45V310.071H537.713V304.819Z" stroke="white" stroke-miterlimit="10"/>
<path d="M314.851 187.641H278.582V203.088H314.851V187.641Z" stroke="white" stroke-miterlimit="10"/>
<path d="M341.662 202.992H251.302V207.076H341.662V202.992Z" stroke="white" stroke-miterlimit="10"/>
<path d="M212.008 89.7886H377.366C378.452 89.7886 379.493 90.1749 380.26 90.8624C381.028 91.55 381.459 92.4826 381.459 93.455V176.813C381.456 179.655 380.194 182.38 377.951 184.39C375.707 186.399 372.665 187.529 369.492 187.531H219.884C216.711 187.53 213.668 186.4 211.424 184.39C209.18 182.381 207.918 179.655 207.915 176.813V93.455C207.915 92.4826 208.346 91.55 209.114 90.8624C209.881 90.1749 210.922 89.7886 212.008 89.7886Z" stroke="white" stroke-miterlimit="10"/>
<path d="M378.849 95.3301H210.525V170.898H378.849V95.3301Z" stroke="white" stroke-miterlimit="10"/>
<path fill-rule="evenodd" clip-rule="evenodd" d="M90.8062 160.979V180.307C90.8079 180.752 91.0033 181.178 91.3497 181.492C91.6962 181.807 92.1656 181.984 92.6555 181.986H120.273C120.763 181.984 121.232 181.807 121.579 181.492C121.925 181.178 122.121 180.752 122.122 180.307V160.979H90.8062Z" stroke="white" stroke-linecap="round" stroke-linejoin="round"/>
<path fill-rule="evenodd" clip-rule="evenodd" d="M120.149 153.686H92.7768C92.2547 153.687 91.7544 153.879 91.3852 154.219C91.016 154.558 90.8079 155.019 90.8062 155.499V162.147H122.122V155.501C122.121 155.02 121.912 154.559 121.543 154.219C121.173 153.879 120.672 153.687 120.149 153.686V153.686ZM96.5081 160.819C96.0121 160.819 95.5272 160.684 95.1149 160.43C94.7025 160.177 94.381 159.816 94.1912 159.394C94.0014 158.973 93.9518 158.509 94.0485 158.061C94.1453 157.613 94.3841 157.202 94.7348 156.879C95.0856 156.556 95.5324 156.336 96.0188 156.247C96.5053 156.158 97.0095 156.204 97.4677 156.379C97.926 156.553 98.3176 156.849 98.5932 157.229C98.8687 157.608 99.0158 158.055 99.0158 158.511C99.0158 159.123 98.7516 159.71 98.2813 160.143C97.811 160.576 97.1732 160.819 96.5081 160.819V160.819ZM106.47 160.819C105.974 160.819 105.489 160.684 105.076 160.43C104.664 160.177 104.343 159.816 104.153 159.394C103.963 158.973 103.913 158.509 104.01 158.061C104.107 157.613 104.346 157.202 104.696 156.879C105.047 156.556 105.494 156.336 105.98 156.247C106.467 156.158 106.971 156.204 107.429 156.379C107.888 156.553 108.279 156.849 108.555 157.229C108.83 157.608 108.977 158.055 108.977 158.511C108.977 158.814 108.912 159.114 108.786 159.394C108.66 159.675 108.476 159.929 108.243 160.143C108.01 160.358 107.734 160.528 107.429 160.644C107.125 160.76 106.799 160.819 106.47 160.819V160.819ZM116.431 160.819C115.935 160.819 115.45 160.684 115.038 160.43C114.626 160.177 114.304 159.816 114.114 159.394C113.925 158.973 113.875 158.509 113.972 158.061C114.068 157.613 114.307 157.202 114.658 156.879C115.009 156.556 115.456 156.336 115.942 156.247C116.428 156.158 116.933 156.204 117.391 156.379C117.849 156.553 118.241 156.849 118.516 157.229C118.792 157.608 118.939 158.055 118.939 158.511C118.939 158.815 118.874 159.116 118.747 159.397C118.62 159.678 118.434 159.933 118.2 160.148C117.966 160.362 117.688 160.532 117.382 160.647C117.076 160.762 116.749 160.821 116.418 160.819H116.431Z" stroke="white" stroke-miterlimit="10"/>
<path fill-rule="evenodd" clip-rule="evenodd" d="M96.3529 151.058C97.2479 151.058 97.9828 151.378 97.9828 151.769V158.225C97.9828 158.608 97.2479 158.936 96.3529 158.936C95.4534 158.936 94.7207 158.616 94.7207 158.225V151.769C94.7229 151.378 95.4556 151.058 96.3529 151.058Z" stroke="white" stroke-linecap="round" stroke-linejoin="round"/>
<path fill-rule="evenodd" clip-rule="evenodd" d="M106.462 151.058C107.36 151.058 108.095 151.378 108.095 151.769V158.225C108.095 158.608 107.36 158.936 106.462 158.936C105.565 158.936 104.833 158.616 104.833 158.225V151.769C104.826 151.378 105.559 151.058 106.462 151.058Z" stroke="white" stroke-linecap="round" stroke-linejoin="round"/>
<path fill-rule="evenodd" clip-rule="evenodd" d="M116.25 151.058C117.147 151.058 117.881 151.378 117.881 151.769V158.225C117.881 158.608 117.147 158.936 116.25 158.936C115.354 158.936 114.619 158.616 114.619 158.225V151.769C114.619 151.378 115.354 151.058 116.25 151.058Z" stroke="white" stroke-linecap="round" stroke-linejoin="round"/>
<path d="M99.8072 177.4V167.935V167.237L99.1463 167.462L96.5151 168.356L96.0573 167.349L101.356 165.563H101.397V177.397L99.8072 177.4Z" stroke="white"/>
<path d="M107.291 174.093V174.086L107.291 174.078C107.274 173.531 107.448 172.987 107.797 172.525C108.147 172.061 108.656 171.7 109.258 171.503L110.551 171.08L109.292 170.565C108.816 170.371 108.418 170.061 108.139 169.68C107.862 169.3 107.714 168.864 107.703 168.42C107.705 167.386 108.159 166.623 108.905 166.101C109.669 165.565 110.761 165.271 112.011 165.271C113.261 165.271 114.353 165.565 115.117 166.101C115.862 166.623 116.317 167.386 116.319 168.42C116.308 168.864 116.159 169.301 115.882 169.68C115.603 170.062 115.205 170.371 114.728 170.565L113.485 171.072L114.757 171.502C115.357 171.704 115.863 172.067 116.213 172.53C116.562 172.993 116.739 173.536 116.728 174.084L116.728 174.084V174.093C116.728 175.997 115.006 177.692 112.011 177.692C109.016 177.692 107.291 175.997 107.291 174.093ZM114.984 174.093C114.984 173.275 114.623 172.633 114.048 172.211C113.49 171.801 112.758 171.617 112.009 171.617C111.26 171.617 110.528 171.801 109.969 172.211C109.394 172.633 109.034 173.275 109.034 174.093C109.034 174.93 109.388 175.589 109.963 176.026C110.522 176.451 111.256 176.642 112.009 176.642C112.76 176.642 113.495 176.452 114.054 176.028C114.63 175.591 114.984 174.931 114.984 174.093ZM114.576 168.425C114.576 167.676 114.269 167.082 113.766 166.687C113.279 166.303 112.644 166.134 112.009 166.134C111.375 166.134 110.74 166.3 110.252 166.683C109.748 167.078 109.441 167.673 109.441 168.425C109.441 169.179 109.749 169.77 110.255 170.16C110.744 170.538 111.378 170.697 112.009 170.697C112.64 170.697 113.275 170.535 113.763 170.157C114.268 169.766 114.576 169.176 114.576 168.425Z" stroke="white"/>
<path d="M458.94 49.996C459.485 38.3547 449.376 28.522 436.361 28.0341C423.345 27.5462 412.352 36.5878 411.807 48.2291C411.261 59.8704 421.37 69.7032 434.385 70.1911C447.401 70.679 458.394 61.6373 458.94 49.996Z" stroke="white" stroke-miterlimit="10"/>
<path d="M435.736 49.8677C435.73 49.9329 435.695 50.0083 435.617 50.0739C435.533 50.1442 435.409 50.1915 435.271 50.1915C435.132 50.1915 435.008 50.1441 434.924 50.0739C434.846 50.0086 434.812 49.9335 434.805 49.8684L434.832 36.3434C434.838 36.2781 434.872 36.2027 434.951 36.1371C435.035 36.0669 435.158 36.0195 435.297 36.0195C435.436 36.0195 435.559 36.0669 435.643 36.1371C435.722 36.2025 435.756 36.2776 435.762 36.3427L435.736 49.8677Z" stroke="white"/>
<path d="M444.43 50.1893L444.429 50.1893L435.227 50.1393C435.071 50.1314 434.947 50.0809 434.873 50.0233C434.838 49.9954 434.82 49.9709 434.812 49.9563C434.805 49.9427 434.805 49.9362 434.805 49.935L434.805 49.935L434.805 49.9349C434.805 49.9337 434.805 49.9264 434.814 49.9118C434.822 49.8963 434.841 49.8712 434.878 49.843C434.955 49.7852 435.082 49.7362 435.238 49.7305L444.441 49.7821C444.441 49.7821 444.441 49.7821 444.441 49.7821C444.52 49.7826 444.595 49.7946 444.663 49.8156C444.73 49.8366 444.784 49.8648 444.822 49.8936C444.861 49.9223 444.88 49.948 444.889 49.9637C444.896 49.978 444.896 49.9849 444.896 49.9858V49.9859V49.9859C444.896 49.987 444.896 49.9946 444.887 50.0099C444.878 50.0265 444.857 50.0529 444.817 50.0818C444.777 50.1106 444.722 50.1384 444.653 50.1587L444.794 50.634L444.653 50.1587C444.585 50.1789 444.509 50.1898 444.43 50.1893Z" stroke="white"/>
<path d="M455.802 49.439H455.813L455.823 49.4385C455.893 49.4355 455.962 49.4454 456.025 49.4668C456.088 49.4881 456.143 49.5199 456.187 49.558C456.231 49.5959 456.263 49.6387 456.283 49.6822C456.304 49.7256 456.314 49.7701 456.314 49.8133C456.314 49.8565 456.304 49.901 456.283 49.9444C456.263 49.9879 456.231 50.0307 456.187 50.0686C456.143 50.1066 456.088 50.1385 456.025 50.1598C455.962 50.1812 455.893 50.1911 455.823 50.1881L455.813 50.1876H455.802H452.932H452.921L452.91 50.1881C452.841 50.1911 452.772 50.1812 452.709 50.1598C452.645 50.1385 452.591 50.1066 452.547 50.0686C452.503 50.0307 452.471 49.9879 452.45 49.9444C452.43 49.9011 452.42 49.8567 452.42 49.8133C452.42 49.7699 452.43 49.7255 452.45 49.6822L451.998 49.4686L452.45 49.6822C452.471 49.6387 452.503 49.5959 452.547 49.558C452.591 49.5199 452.645 49.4881 452.709 49.4668C452.772 49.4454 452.841 49.4355 452.91 49.4385L452.921 49.439H452.932H455.802Z" stroke="white"/>
<path d="M435.761 68.2273V68.2419L435.762 68.2566C435.764 68.2824 435.759 68.3108 435.745 68.3414C435.731 68.3727 435.706 68.4086 435.665 68.4438C435.624 68.4792 435.57 68.5118 435.503 68.5354C435.436 68.5591 435.361 68.5721 435.284 68.5721C435.206 68.5721 435.132 68.5591 435.065 68.5354C434.998 68.5118 434.943 68.4792 434.902 68.4438C434.861 68.4086 434.836 68.3727 434.822 68.3414L434.367 68.5474L434.822 68.3414C434.808 68.3108 434.804 68.2824 434.805 68.2566L434.806 68.2419V68.2273V65.8321V65.8174L434.805 65.8028C434.804 65.7769 434.808 65.7486 434.822 65.718C434.836 65.6867 434.861 65.6508 434.902 65.6156C434.943 65.5802 434.998 65.5476 435.065 65.5239C435.132 65.5003 435.206 65.4873 435.284 65.4873C435.361 65.4873 435.436 65.5003 435.503 65.5239C435.57 65.5476 435.624 65.5802 435.665 65.6156C435.706 65.6508 435.731 65.6867 435.745 65.718C435.759 65.7486 435.764 65.7769 435.762 65.8028L435.761 65.8174V65.8321V68.2273Z" stroke="white"/>
<path d="M415.042 50.1876H415.031L415.019 50.1881C414.96 50.1909 414.9 50.182 414.845 50.1624C414.79 50.1428 414.741 50.1134 414.701 50.0769C414.661 50.0405 414.631 49.9981 414.61 49.9531C414.59 49.908 414.58 49.8605 414.58 49.8133C414.58 49.7661 414.59 49.7186 414.61 49.6735C414.631 49.6285 414.661 49.5861 414.701 49.5497C414.741 49.5132 414.79 49.4838 414.845 49.4642C414.9 49.4446 414.96 49.4357 415.019 49.4385L415.031 49.439H415.042H417.76C417.87 49.4463 417.97 49.4927 418.04 49.5629C418.111 49.6344 418.147 49.7245 418.147 49.8133C418.147 49.9021 418.111 49.9922 418.04 50.0637C417.97 50.1339 417.87 50.1802 417.76 50.1876H415.042Z" stroke="white"/>
<path d="M453.465 58.6234L453.471 58.6267L453.478 58.6298C453.54 58.6575 453.589 58.6929 453.624 58.73C453.66 58.7668 453.681 58.804 453.692 58.8371C453.703 58.8698 453.706 58.9016 453.702 58.9325C453.697 58.9635 453.685 58.9983 453.66 59.0345C453.635 59.0711 453.597 59.109 453.545 59.1423C453.493 59.1756 453.429 59.2023 453.357 59.2177C453.285 59.2331 453.209 59.2363 453.134 59.2267C453.06 59.2171 452.992 59.1954 452.933 59.1652L452.933 59.1651L452.922 59.1594L450.376 57.9232L450.369 57.9199L450.362 57.9168C450.301 57.8891 450.252 57.8537 450.216 57.8166C450.181 57.7798 450.159 57.7426 450.148 57.7095C450.137 57.6768 450.134 57.645 450.139 57.6141C450.143 57.5831 450.156 57.5483 450.18 57.5121C450.205 57.4754 450.243 57.4376 450.295 57.4043C450.347 57.371 450.411 57.3443 450.483 57.3289C450.555 57.3135 450.631 57.3103 450.706 57.3199C450.78 57.3295 450.849 57.3512 450.907 57.3814L450.907 57.3815L450.919 57.3872L453.465 58.6234Z" stroke="white"/>
<path d="M426.304 63.3429L426.308 63.3357L426.312 63.3283C426.333 63.29 426.361 63.2556 426.397 63.2276C426.432 63.1995 426.473 63.1783 426.518 63.1656C426.563 63.153 426.61 63.1493 426.656 63.1548C426.702 63.1604 426.747 63.175 426.786 63.1975C426.826 63.22 426.861 63.2498 426.888 63.2848C426.914 63.3197 426.934 63.3592 426.944 63.4007C426.955 63.4423 426.957 63.4853 426.951 63.5275L427.417 63.5999L426.951 63.5275C426.944 63.5697 426.929 63.6106 426.906 63.6477L426.902 63.6538L426.898 63.66L425.648 65.7914C425.603 65.8611 425.531 65.9133 425.445 65.9348C425.357 65.9568 425.264 65.944 425.187 65.9002C425.109 65.8565 425.054 65.7864 425.031 65.7065C425.009 65.6289 425.016 65.5457 425.054 65.473L426.304 63.3429Z" stroke="white"/>
<path d="M443.674 63.6262L443.668 63.6191L443.663 63.6121C443.635 63.5753 443.621 63.5413 443.616 63.5132C443.61 63.4854 443.611 63.4573 443.62 63.4279C443.63 63.3979 443.649 63.3617 443.684 63.3239C443.72 63.2858 443.77 63.2479 443.836 63.217C443.903 63.1862 443.98 63.1647 444.063 63.1563C444.146 63.1478 444.23 63.1531 444.309 63.1711C444.389 63.1891 444.457 63.2187 444.513 63.2545L444.784 62.8345L444.513 63.2545C444.568 63.2902 444.606 63.3295 444.63 63.3656L444.635 63.3723L444.639 63.3788L446.165 65.5075C446.205 65.5701 446.208 65.6264 446.19 65.6769C446.169 65.7363 446.107 65.8196 445.976 65.8806C445.846 65.9417 445.68 65.9624 445.522 65.9305C445.366 65.8992 445.257 65.8261 445.199 65.7542L443.674 63.6262Z" stroke="white"/>
<path d="M419.867 57.3761L419.874 57.3722L419.881 57.368C419.922 57.3431 419.968 57.3263 420.017 57.3188C420.065 57.3113 420.115 57.3135 420.163 57.3251C420.21 57.3368 420.255 57.3575 420.293 57.3856C420.331 57.4136 420.362 57.4483 420.385 57.4872C420.408 57.5259 420.422 57.5683 420.428 57.6117C420.434 57.6551 420.43 57.6992 420.418 57.7415C420.406 57.7839 420.385 57.8241 420.356 57.8596C420.326 57.8951 420.29 57.9253 420.247 57.9477L420.241 57.951L420.235 57.9545L418.033 59.196C417.952 59.2348 417.858 59.2429 417.77 59.2178C417.679 59.1919 417.606 59.1338 417.562 59.0591C417.518 58.9849 417.505 58.8984 417.526 58.817C417.545 58.7379 417.595 58.6661 417.668 58.6173L419.867 57.3761Z" stroke="white"/>
<path d="M434.834 31.3092C434.814 31.3516 434.805 31.3948 434.805 31.4369V34.053C434.805 34.095 434.814 34.1382 434.834 34.1806C434.853 34.2232 434.884 34.2655 434.926 34.3036C434.969 34.3418 435.022 34.3745 435.084 34.3976M434.834 31.3092L435.084 34.3976M434.834 31.3092C434.853 31.2666 434.884 31.2243 434.926 31.1862M434.834 31.3092L434.926 31.1862M435.084 34.3976C435.084 34.3976 435.084 34.3976 435.084 34.3976M435.084 34.3976L435.084 34.3976M434.926 31.1862C434.969 31.148 435.022 31.1153 435.084 31.0922M434.926 31.1862L435.084 31.0922M435.084 31.0922C435.146 31.0691 435.214 31.0566 435.284 31.0566M435.084 31.0922L435.284 31.0566M435.284 31.0566C435.354 31.0566 435.422 31.0691 435.484 31.0922M435.284 31.0566L435.484 31.0922M435.484 31.0922C435.546 31.1153 435.599 31.148 435.641 31.1862M435.484 31.0922L435.641 31.1862M435.641 31.1862C435.684 31.2243 435.714 31.2666 435.734 31.3092M435.641 31.1862L435.734 31.3092M435.734 31.3092C435.753 31.3514 435.762 31.3946 435.762 31.4369M435.734 31.3092L435.762 31.4369M435.762 31.4369V34.053M435.762 31.4369V34.053M435.762 34.053C435.762 34.0952 435.753 34.1384 435.734 34.1806M435.762 34.053L435.734 34.1806M435.734 34.1806C435.714 34.2232 435.684 34.2655 435.641 34.3036M435.734 34.1806L435.641 34.3036M435.641 34.3036C435.599 34.3418 435.546 34.3745 435.484 34.3976M435.641 34.3036L435.484 34.3976M435.484 34.3976C435.484 34.3976 435.484 34.3976 435.484 34.3976M435.484 34.3976L435.484 34.3976M435.484 34.3976C435.422 34.4208 435.354 34.4332 435.284 34.4332M435.484 34.3976L435.284 34.4332M435.284 34.4332C435.214 34.4332 435.146 34.4208 435.084 34.3976M435.284 34.4332L435.084 34.3976" stroke="white"/>
<path d="M417.686 41.0074L417.686 41.0069C417.646 40.9846 417.612 40.9552 417.585 40.9209L417.192 41.2297L417.585 40.9209C417.558 40.8866 417.539 40.8479 417.527 40.8073C417.516 40.7667 417.513 40.7245 417.519 40.6829C417.524 40.6414 417.538 40.6009 417.56 40.5638C417.582 40.5266 417.611 40.4934 417.647 40.4664C417.683 40.4394 417.724 40.4191 417.769 40.4072C417.814 40.3954 417.86 40.3923 417.907 40.3982C417.953 40.404 417.997 40.4187 418.036 40.4409C418.036 40.441 418.036 40.441 418.037 40.4411L420.224 41.6797L420.235 41.6857L420.246 41.6912C420.288 41.7125 420.325 41.7415 420.354 41.776L420.736 41.4532L420.354 41.776C420.383 41.8106 420.404 41.85 420.417 41.8918C420.43 41.9335 420.434 41.9771 420.428 42.0201C420.423 42.063 420.409 42.105 420.387 42.1434L420.819 42.3955L420.387 42.1434C420.365 42.1818 420.334 42.216 420.297 42.2436C420.259 42.2712 420.216 42.2915 420.17 42.3028C420.123 42.3141 420.075 42.316 420.027 42.3084C419.98 42.3008 419.935 42.2839 419.895 42.2591L419.886 42.2536L419.877 42.2484L417.686 41.0074L417.686 41.0074Z" stroke="white"/>
<path d="M445.19 33.9087L445.195 33.9013L445.2 33.8938C445.223 33.859 445.26 33.8208 445.314 33.7858C445.368 33.7507 445.436 33.7215 445.513 33.7035C445.591 33.6856 445.674 33.6802 445.757 33.6882C445.839 33.6962 445.915 33.7171 445.98 33.7472C446.045 33.7773 446.095 33.8143 446.13 33.8513C446.165 33.888 446.184 33.9229 446.193 33.9514C446.201 33.9793 446.203 34.0057 446.198 34.0315L446.689 34.125L446.198 34.0315C446.193 34.0578 446.18 34.0902 446.153 34.1257L446.148 34.1319L446.143 34.1383L444.623 36.2535L444.618 36.2608L444.613 36.2683C444.59 36.3031 444.553 36.3414 444.499 36.3764C444.445 36.4114 444.377 36.4406 444.299 36.4586C444.222 36.4765 444.139 36.482 444.056 36.474C443.974 36.466 443.898 36.445 443.833 36.415C443.768 36.3849 443.718 36.3479 443.683 36.3109C443.648 36.2741 443.629 36.2393 443.62 36.2108C443.612 36.1829 443.61 36.1565 443.615 36.1306C443.62 36.1043 443.633 36.072 443.66 36.0365L443.665 36.0303L443.67 36.0239L445.19 33.9087Z" stroke="white"/>
<path d="M426.896 35.9619L426.9 35.969L426.905 35.9759C426.928 36.0133 426.944 36.0546 426.95 36.0973C426.957 36.14 426.955 36.1836 426.945 36.2256C426.934 36.2676 426.915 36.3075 426.888 36.3429L427.285 36.6466L426.888 36.3429C426.861 36.3784 426.826 36.4086 426.786 36.4314C426.746 36.4542 426.702 36.4691 426.655 36.4749C426.608 36.4806 426.561 36.4771 426.516 36.4646C426.471 36.452 426.429 36.4308 426.394 36.4026C426.358 36.3744 426.329 36.3398 426.308 36.3012L426.304 36.2948L426.301 36.2886L425.052 34.1562C425.016 34.0836 425.009 34.0011 425.032 33.9242C425.055 33.8444 425.11 33.7744 425.187 33.7306C425.264 33.6866 425.357 33.6733 425.444 33.6943C425.529 33.7145 425.601 33.7645 425.647 33.8319L426.896 35.9619Z" stroke="white"/>
<path d="M452.941 40.4567L452.941 40.4565C453.063 40.3974 453.216 40.3785 453.362 40.4112C453.508 40.4439 453.608 40.5189 453.659 40.5927C453.706 40.6613 453.713 40.7278 453.694 40.7868C453.673 40.8511 453.613 40.9335 453.493 40.9923C453.493 40.9923 453.493 40.9923 453.493 40.9923L450.941 42.2317L450.932 42.2363L450.922 42.2413C450.864 42.2727 450.795 42.2958 450.719 42.3064C450.644 42.3171 450.566 42.3146 450.492 42.2996C450.418 42.2845 450.353 42.2578 450.299 42.224C450.246 42.1903 450.207 42.1518 450.181 42.1145C450.156 42.0776 450.143 42.0422 450.139 42.0105C450.134 41.9791 450.137 41.9466 450.149 41.9133C450.16 41.8795 450.182 41.8416 450.219 41.804L449.868 41.4603L450.219 41.804C450.256 41.7663 450.307 41.7305 450.37 41.7028L450.38 41.6988L450.389 41.6943L452.941 40.4567Z" stroke="white"/>
<path d="M294.688 38.4342C301.714 38.4342 307.41 33.3397 307.41 27.0553C307.41 20.7708 301.714 15.6763 294.688 15.6763C287.661 15.6763 281.965 20.7708 281.965 27.0553C281.965 33.3397 287.661 38.4342 294.688 38.4342Z" stroke="white" stroke-miterlimit="10"/>
<path d="M294.688 62.3605C301.714 62.3605 307.41 57.266 307.41 50.9815C307.41 44.6971 301.714 39.6025 294.688 39.6025C287.661 39.6025 281.965 44.6971 281.965 50.9815C281.965 57.266 287.661 62.3605 294.688 62.3605Z" stroke="white" stroke-miterlimit="10"/>
<path d="M340.683 55.6488C340.122 39.473 319.743 26.4719 294.687 26.4719C269.631 26.4719 249.252 39.473 248.691 55.6488H340.683Z" stroke="white" stroke-miterlimit="10"/>
<path d="M257.499 44.853C256.611 46.2344 255.847 47.6996 255.216 49.2296" stroke="white" stroke-linecap="round" stroke-linejoin="round"/>
<path d="M266.307 37.2676C264.174 38.5423 262.205 40.0095 260.436 41.6441" stroke="white" stroke-linecap="round" stroke-linejoin="round"/>
<path d="M294.035 29.6816C284.59 29.6816 275.886 31.8458 268.917 35.517" stroke="white" stroke-linecap="round" stroke-linejoin="round"/>
<path d="M294.687 15.6776V0.213867" stroke="white" stroke-miterlimit="10"/>
<path d="M601.324 119.549H436.588V128.886H601.324V119.549Z" stroke="white" stroke-miterlimit="10"/>
<path d="M463.99 128.883H455.182V145.514H463.99V128.883Z" stroke="white" stroke-miterlimit="10"/>
<path d="M586.319 128.883H577.511V145.514H586.319V128.883Z" stroke="white" stroke-miterlimit="10"/>
<path d="M165.834 122.172H1.09814V131.217H165.834V122.172Z" stroke="white" stroke-miterlimit="10"/>
<path d="M28.5001 131.22H19.3662V147.851H28.5001V131.22Z" stroke="white" stroke-miterlimit="10"/>
<path d="M150.829 131.22H141.695V147.851H150.829V131.22Z" stroke="white" stroke-miterlimit="10"/>
<path d="M507.703 95.9124H475.082V100.872H507.703V95.9124Z" stroke="white" stroke-miterlimit="10"/>
<path d="M478.332 100.787C477.585 100.787 476.868 100.519 476.339 100.042C475.811 99.5656 475.514 98.9189 475.514 98.2446C475.514 97.5703 475.811 96.9236 476.339 96.4468C476.868 95.97 477.585 95.7021 478.332 95.7021H508.682V95.0391H459.065C458.121 95.0396 457.217 95.378 456.55 95.9798C455.884 96.5816 455.509 97.3977 455.509 98.2485C455.509 99.0994 455.884 99.9154 456.55 100.517C457.217 101.119 458.121 101.457 459.065 101.458H508.682V100.795L478.332 100.787Z" stroke="white" stroke-miterlimit="10"/>
<path d="M507.703 111.671H475.082V118.965H507.703V111.671Z" stroke="white" stroke-miterlimit="10"/>
<path d="M478.332 118.643C476.773 118.643 475.514 117.088 475.514 115.171C475.514 113.254 476.778 111.699 478.332 111.699H508.682V110.794H459.065C457.1 110.794 455.509 112.753 455.509 115.171C455.509 117.587 457.1 119.547 459.065 119.547H508.682V118.643H478.332Z" stroke="white" stroke-miterlimit="10"/>
<path d="M504.766 102.625H476.386V109.919H504.766V102.625Z" stroke="white" stroke-miterlimit="10"/>
<path d="M479.353 109.838C478.013 109.838 476.928 108.18 476.928 106.134C476.928 104.088 478.007 102.429 479.353 102.429H505.419V101.459H462.805C461.118 101.459 459.75 103.549 459.75 106.128C459.75 108.705 461.118 110.796 462.805 110.796H505.419V109.826L479.353 109.838Z" stroke="white" stroke-miterlimit="10"/>
<path d="M518.229 207.079H474.103L478.581 170.608H522.708L518.229 207.079Z" stroke="white" stroke-miterlimit="10"/>
<path d="M517.281 207.079H473.45L477.9 170.608H521.729L517.281 207.079Z" stroke="white" stroke-miterlimit="10"/>
<path d="M512.588 202.994H478.996L482.266 174.984H515.858L512.588 202.994Z" stroke="white" stroke-miterlimit="10"/>
<path d="M507.787 198.325H485.194L487.393 179.36H509.986L507.787 198.325Z" stroke="white" stroke-miterlimit="10"/>
<path d="M479.846 202.994H478.996L482.387 174.984H483.237L479.846 202.994Z" stroke="white" stroke-miterlimit="10"/>
<path d="M521.286 183.152L528.254 207.077H518.467L521.286 183.152Z" stroke="white" stroke-miterlimit="10"/>
<path d="M42.5525 76.3069C42.0978 77.8258 42.0402 79.4145 41.9859 80.9097C41.978 81.1289 41.9701 81.3462 41.961 81.5609L41.961 81.561C41.81 85.1596 41.6807 88.7645 41.6369 92.3729L41.6368 92.3741C41.6193 94.1716 41.6193 95.9735 41.6368 97.78C41.6369 98.1249 41.6457 98.4608 41.6545 98.7955C41.6677 99.295 41.6808 99.7918 41.6644 100.311C41.6489 100.802 41.6065 101.274 41.5158 101.718C41.3439 101.167 41.2445 100.568 41.1847 99.9422C41.1235 99.3016 41.1057 98.6728 41.088 98.0482C41.078 97.6943 41.068 97.3417 41.0502 96.9891M42.5525 76.3069L40.8144 90.6388M42.5525 76.3069C43.0525 74.6289 44.1291 73.2191 45.2038 71.9214L45.205 71.92C47.3732 69.3215 49.7178 66.8421 52.2257 64.4955L52.2267 64.4945C55.0844 61.8361 58.1076 59.3211 61.2822 56.9612M42.5525 76.3069L40.8144 90.6386M41.0502 96.9891C41.0502 96.9892 41.0502 96.9892 41.0502 96.9893L40.5508 97.014L41.0502 96.9888C41.0502 96.9889 41.0502 96.989 41.0502 96.9891ZM41.0502 96.9891C40.9454 94.8736 40.8668 92.7568 40.8144 90.6388M40.8144 90.6388C40.8144 90.6389 40.8144 90.639 40.8144 90.6391L40.3146 90.651L40.8144 90.6386M40.8144 90.6388L40.8144 90.6386M40.8144 90.6386C40.7248 86.8829 40.6902 83.1294 40.8904 79.3897L40.8904 79.3894C40.9767 77.7566 41.1994 76.1818 41.8827 74.7222C42.5598 73.2863 43.5452 71.9873 44.5934 70.6668M61.2822 56.9612C61.2828 56.9607 61.2835 56.9602 61.2841 56.9597L61.5824 57.361L61.2805 56.9624C61.2811 56.962 61.2816 56.9616 61.2822 56.9612ZM61.2822 56.9612C61.5554 56.7536 61.6052 56.5645 61.5987 56.4308C61.591 56.2735 61.4986 56.0771 61.2958 55.8989C60.8834 55.5365 60.2155 55.4139 59.6857 55.8151L59.6847 55.8159C53.9544 60.1321 48.922 65.227 44.5934 70.6668M44.5934 70.6668C44.5935 70.6667 44.5935 70.6667 44.5935 70.6666L44.202 70.3558L44.5932 70.6671C44.5932 70.667 44.5933 70.6669 44.5934 70.6668Z" stroke="white"/>
<path d="M41.1381 99.4692C40.58 96.9507 40.5806 94.3709 40.5813 91.7212C40.5813 91.6325 40.5813 91.5438 40.5813 91.4549C40.5813 90.3923 40.5902 89.325 40.5992 88.2551C40.6172 86.1054 40.6353 83.9454 40.5811 81.7924C40.5084 78.8333 40.2944 75.839 39.7077 72.9044C39.4149 71.4159 39.0195 69.9457 38.5238 68.5025L38.5238 68.5023C38.2945 67.8353 38.041 67.1731 37.7612 66.522L37.7612 66.522L37.7602 66.5196C37.6535 66.2749 37.5178 66.0118 37.3907 65.7655C37.3238 65.6357 37.2592 65.5106 37.2026 65.3953C37.0248 65.0333 36.8918 64.708 36.8393 64.3957L36.8392 64.3951C36.7769 64.0271 37.0042 63.5724 37.4134 63.3165C37.6069 63.1955 37.8115 63.1406 37.9996 63.1545C38.1794 63.1677 38.3786 63.2458 38.575 63.4536C39.0675 63.9748 39.4338 64.6588 39.7349 65.4181C39.9818 66.0407 40.1744 66.685 40.3611 67.3096C40.4028 67.4491 40.4442 67.5876 40.4858 67.7247C40.9104 69.1424 41.2342 70.5831 41.4555 72.038C41.8968 74.9837 42.0829 77.9562 42.0119 80.9281L42.0118 80.9319C41.9726 83.3309 41.8175 85.7213 41.6616 88.1254C41.6068 88.9699 41.5519 89.8162 41.5018 90.665C41.5018 90.6651 41.5018 90.6651 41.5018 90.6651L41.1381 99.4692Z" stroke="white"/>
<mask id="path-67-inside-1_1_591" fill="white">
<path d="M52.2497 63.261C55.5158 61.9177 59.1375 61.4733 62.6742 61.982C63.0537 62.037 63.4803 62.1353 63.6561 62.4476C63.9692 63.0017 63.2273 63.5518 62.6098 63.8091C58.2334 65.6196 53.6975 67.0872 49.0508 68.1963"/>
</mask>
<path d="M62.6742 61.982L62.8176 60.9924L62.8165 60.9922L62.6742 61.982ZM63.6561 62.4476L62.7847 62.9381L62.7855 62.9396L63.6561 62.4476ZM62.6098 63.8091L62.9921 64.7332L62.9946 64.7322L62.6098 63.8091ZM52.6301 64.1858C55.7288 62.9114 59.1699 62.4883 62.5318 62.9718L62.8165 60.9922C59.1051 60.4584 55.3027 60.924 51.8693 62.3362L52.6301 64.1858ZM62.5307 62.9717C62.6115 62.9834 62.6809 62.9954 62.7415 63.0092C62.8027 63.0231 62.844 63.0363 62.8699 63.0467C62.9304 63.0709 62.8505 63.0551 62.7847 62.9381L64.5276 61.9572C64.2859 61.5278 63.9048 61.3067 63.6131 61.1899C63.323 61.0738 63.0252 61.0224 62.8176 60.9924L62.5307 62.9717ZM62.7855 62.9396C62.7642 62.9019 62.7424 62.8463 62.7339 62.7772C62.7254 62.7087 62.7326 62.6484 62.7445 62.6031C62.7657 62.5228 62.7954 62.5098 62.7516 62.5565C62.7124 62.5985 62.6428 62.6573 62.5409 62.7221C62.4415 62.7854 62.3308 62.8421 62.2251 62.8861L62.9946 64.7322C63.3792 64.5719 63.858 64.3014 64.2122 63.9228C64.392 63.7306 64.587 63.46 64.6785 63.1127C64.7781 62.7349 64.737 62.3279 64.5268 61.9557L62.7855 62.9396ZM62.2276 62.8851C57.9002 64.6752 53.4145 66.1266 48.8186 67.2236L49.2829 69.1689C53.9804 68.0477 58.5665 66.5639 62.9921 64.7332L62.2276 62.8851Z" fill="white" mask="url(#path-67-inside-1_1_591)"/>
<mask id="path-69-inside-2_1_591" fill="white">
<path d="M42.3517 75.6443C45.1671 74.396 48.1178 73.4065 51.1581 72.691C51.4816 72.595 51.8233 72.5571 52.1634 72.5795C52.3335 72.5934 52.4959 72.6493 52.6323 72.7409C52.7688 72.8325 52.8739 72.9562 52.936 73.0981C53.0699 73.4993 52.7165 73.881 52.3938 74.1882C49.4733 76.8345 46.0136 78.9601 42.2002 80.451"/>
</mask>
<path d="M51.1581 72.691L51.3871 73.6644L51.415 73.6579L51.4424 73.6497L51.1581 72.691ZM52.1634 72.5795L52.2451 71.5828L52.237 71.5821L52.2289 71.5816L52.1634 72.5795ZM52.936 73.0981L53.8846 72.7815L53.8703 72.7387L53.8522 72.6974L52.936 73.0981ZM52.3938 74.1882L53.0653 74.9293L53.0745 74.9209L53.0835 74.9124L52.3938 74.1882ZM42.757 76.5585C45.5149 75.3358 48.4065 74.3659 51.3871 73.6644L50.929 71.7176C47.8291 72.4471 44.8194 73.4563 41.9463 74.7301L42.757 76.5585ZM51.4424 73.6497C51.6515 73.5877 51.8746 73.5627 52.0978 73.5773L52.2289 71.5816C51.772 71.5516 51.3118 71.6024 50.8737 71.7323L51.4424 73.6497ZM52.0817 73.5761C52.0843 73.5763 52.0855 73.5768 52.0849 73.5766C52.0844 73.5764 52.0809 73.5752 52.075 73.5712L53.1897 71.9106C52.9059 71.7202 52.5785 71.6101 52.2451 71.5828L52.0817 73.5761ZM52.075 73.5712C52.0635 73.5635 52.0388 73.5422 52.0198 73.4988L53.8522 72.6974C53.7091 72.3702 53.4741 72.1015 53.1897 71.9106L52.075 73.5712ZM51.9874 73.4147C51.9609 73.335 51.961 73.2564 51.9725 73.1989C51.9822 73.1504 51.9959 73.1354 51.9819 73.1586C51.9681 73.1812 51.94 73.2202 51.8888 73.2772C51.8384 73.3336 51.7777 73.394 51.7042 73.464L53.0835 74.9124C53.2472 74.7565 53.5034 74.5056 53.6904 74.1982C53.8849 73.8786 54.0804 73.3683 53.8846 72.7815L51.9874 73.4147ZM51.7224 73.4472C48.8954 76.0087 45.5408 78.0712 41.8361 79.5196L42.5643 81.3823C46.4864 79.8489 50.0512 77.6603 53.0653 74.9293L51.7224 73.4472Z" fill="white" mask="url(#path-69-inside-2_1_591)"/>
<mask id="path-71-inside-3_1_591" fill="white">
<path d="M41.5488 86.7091C43.7108 84.9812 46.1719 83.6076 48.8273 82.6468C49.3474 82.449 50.1012 82.3738 50.3135 82.8564C50.367 83.0123 50.3706 83.1792 50.3241 83.337C50.1734 83.9778 49.7148 84.5236 49.2625 85.0121C47.0383 87.4464 44.523 89.6361 41.7654 91.5387"/>
</mask>
<path d="M48.8273 82.6468L49.1675 83.5871L49.1751 83.5843L49.1826 83.5815L48.8273 82.6468ZM50.3135 82.8564L51.2594 82.532L51.2458 82.4922L51.2288 82.4537L50.3135 82.8564ZM50.3241 83.337L49.3649 83.0542L49.3571 83.0809L49.3507 83.108L50.3241 83.337ZM49.2625 85.0121L48.5287 84.3328L48.5243 84.3376L49.2625 85.0121ZM42.1731 87.4902C44.248 85.832 46.6128 84.5115 49.1675 83.5871L48.487 81.7064C45.731 82.7037 43.1736 84.1304 40.9245 85.9279L42.1731 87.4902ZM49.1826 83.5815C49.2596 83.5522 49.3465 83.5272 49.4316 83.5114C49.5186 83.4953 49.5849 83.4922 49.6259 83.4946C49.6707 83.4973 49.65 83.5042 49.5957 83.4753C49.5657 83.4594 49.5269 83.4332 49.4883 83.3929C49.4488 83.3517 49.4185 83.3053 49.3982 83.2591L51.2288 82.4537C50.9039 81.7152 50.1954 81.5252 49.7458 81.4982C49.2842 81.4705 48.8207 81.5794 48.4719 81.712L49.1826 83.5815ZM49.3676 83.1808C49.3539 83.1409 49.3527 83.0957 49.3649 83.0542L51.2833 83.6198C51.3886 83.2628 51.38 82.8836 51.2594 82.532L49.3676 83.1808ZM49.3507 83.108C49.2672 83.4629 48.9895 83.8351 48.5287 84.3328L49.9963 85.6915C50.4401 85.2122 51.0796 84.4927 51.2976 83.566L49.3507 83.108ZM48.5243 84.3376C46.3519 86.7152 43.8939 88.8552 41.1975 90.7156L42.3333 92.3618C45.1521 90.417 47.7248 88.1776 50.0008 85.6867L48.5243 84.3376Z" fill="white" mask="url(#path-71-inside-3_1_591)"/>
<mask id="path-73-inside-4_1_591" fill="white">
<path d="M54.2702 60.2537C54.1354 59.2153 53.9146 58.1875 53.6096 57.179C53.313 56.2068 52.928 55.2364 52.2653 54.424C52.2289 54.3657 52.1794 54.3149 52.1199 54.2749C52.0605 54.2349 51.9925 54.2066 51.9202 54.1919C51.7943 54.1944 51.674 54.2399 51.5836 54.3194C50.7105 54.9415 50.3213 55.9556 50.0184 56.9203C49.1022 59.8353 48.5587 62.8357 48.3984 65.8626"/>
</mask>
<path d="M53.6096 57.179L54.5668 56.8896L54.5661 56.8872L53.6096 57.179ZM52.2653 54.424L51.4168 54.9533L51.4503 55.007L51.4904 55.0561L52.2653 54.424ZM51.9202 54.1919L52.1202 53.2121L52.0114 53.1899L51.9004 53.1921L51.9202 54.1919ZM51.5836 54.3194L52.164 55.1338L52.2055 55.1041L52.2439 55.0704L51.5836 54.3194ZM50.0184 56.9203L50.9724 57.2201L50.9724 57.2199L50.0184 56.9203ZM55.2619 60.1249C55.12 59.0318 54.8875 57.9503 54.5668 56.8896L52.6524 57.4685C52.9416 58.4248 53.1508 59.3988 53.2785 60.3825L55.2619 60.1249ZM54.5661 56.8872C54.2567 55.8733 53.8259 54.7551 53.0402 53.7919L51.4904 55.0561C52.0301 55.7177 52.3692 56.5403 52.6531 57.4709L54.5661 56.8872ZM53.1137 53.8948C52.9997 53.712 52.8494 53.5604 52.6781 53.4452L51.5617 55.1046C51.5093 55.0693 51.4581 55.0194 51.4168 54.9533L53.1137 53.8948ZM52.6781 53.4452C52.507 53.3301 52.3167 53.2522 52.1202 53.2121L51.7202 55.1717C51.6683 55.1611 51.614 55.1398 51.5617 55.1046L52.6781 53.4452ZM51.9004 53.1921C51.5504 53.199 51.2001 53.3251 50.9234 53.5683L52.2439 55.0704C52.1479 55.1548 52.0381 55.1898 51.9401 55.1917L51.9004 53.1921ZM51.0033 53.505C49.8317 54.3399 49.3659 55.6604 49.0643 56.6206L50.9724 57.2199C51.2768 56.2509 51.5894 55.5432 52.164 55.1338L51.0033 53.505ZM49.0644 56.6204C48.1232 59.6149 47.5645 62.6982 47.3998 65.8098L49.397 65.9155C49.5528 62.9731 50.0812 60.0556 50.9724 57.2201L49.0644 56.6204Z" fill="white" mask="url(#path-73-inside-4_1_591)"/>
<mask id="path-75-inside-5_1_591" fill="white">
<path d="M57.0022 57.0915C55.9452 53.52 56.8088 49.1339 59.0432 46.019C59.8553 47.0175 60.1797 48.1771 60.3495 49.3972C60.6954 51.8603 60.8458 52.5083 60.5815 54.9505C63.8042 51.0797 67.9915 50.5132 73.4227 50.2479C73.5049 50.4273 73.5338 50.6222 73.5068 50.8141C73.4797 51.0061 73.3975 51.1888 73.268 51.345C70.8188 54.2362 66.2491 57.6959 61.0219 57.3776"/>
</mask>
<path d="M59.0432 46.019L59.819 45.3881L58.9934 44.3729L58.2307 45.4362L59.0432 46.019ZM60.3495 49.3972L59.359 49.535L59.3592 49.5363L60.3495 49.3972ZM60.5815 54.9505L59.5873 54.8429L59.231 58.1355L61.35 55.5903L60.5815 54.9505ZM73.4227 50.2479L74.3318 49.8314L74.0499 49.2161L73.374 49.2491L73.4227 50.2479ZM73.268 51.345L74.0311 51.9914L74.0378 51.9833L73.268 51.345ZM57.9611 56.8077C56.9993 53.558 57.785 49.4886 59.8558 46.6019L58.2307 45.4362C55.8326 48.7791 54.891 53.482 56.0433 57.3753L57.9611 56.8077ZM58.2674 46.65C58.9138 47.4447 59.2005 48.3954 59.359 49.535L61.3399 49.2595C61.159 47.9587 60.7969 46.5903 59.819 45.3881L58.2674 46.65ZM59.3592 49.5363C59.7037 51.9896 59.8373 52.5326 59.5873 54.8429L61.5757 55.0581C61.8542 52.484 61.687 51.731 61.3398 49.2582L59.3592 49.5363ZM61.35 55.5903C64.2707 52.0822 68.0407 51.512 73.4715 51.2468L73.374 49.2491C67.9422 49.5144 63.3376 50.0772 59.813 54.3107L61.35 55.5903ZM72.5136 50.6645C72.516 50.6697 72.5165 50.6725 72.5166 50.6731C72.5167 50.6737 72.5166 50.674 72.5166 50.6745L74.497 50.9538C74.5512 50.569 74.4922 50.1813 74.3318 49.8314L72.5136 50.6645ZM72.5166 50.6745C72.5165 50.6751 72.5161 50.6778 72.5138 50.6828C72.5115 50.6879 72.507 50.6961 72.4983 50.7066L74.0378 51.9833C74.2798 51.6915 74.4428 51.3379 74.497 50.9538L72.5166 50.6745ZM72.505 50.6986C70.1418 53.4884 65.8494 56.6697 61.0827 56.3794L60.9612 58.3757C66.6488 58.7221 71.4959 54.9841 74.0311 51.9913L72.505 50.6986Z" fill="white" mask="url(#path-75-inside-5_1_591)"/>
<mask id="path-77-inside-6_1_591" fill="white">
<path d="M39.3599 63.6375C39.9555 61.8476 39.2642 59.6044 38.8034 57.7838C38.7621 57.6225 38.6751 57.4285 38.4882 57.4189C38.4376 57.4207 38.388 57.4313 38.3421 57.4501C38.2962 57.4689 38.255 57.4955 38.2208 57.5284C37.0099 58.5443 37.0056 61.3098 37.1338 62.6695C36.5295 61.5326 36.2338 61.2196 35.3947 60.2075C34.4491 59.0725 33.3034 57.9931 31.8143 57.4861C31.5752 57.4055 31.2795 57.3459 31.0817 57.4861C30.9868 57.5639 30.9202 57.6648 30.8904 57.7761C30.6209 58.527 30.8904 59.3567 31.3556 60.0346C31.8208 60.7126 34.1165 65.1739 38.4034 64.9818"/>
</mask>
<path d="M38.8034 57.7838L39.7728 57.5384L39.7721 57.5358L38.8034 57.7838ZM38.4882 57.4189L38.5394 56.4202L38.4957 56.418L38.452 56.4196L38.4882 57.4189ZM38.2208 57.5284L38.8635 58.2945L38.8892 58.2729L38.9133 58.2497L38.2208 57.5284ZM37.1338 62.6695L36.2508 63.1389L38.1294 62.5756L37.1338 62.6695ZM35.3947 60.2075L36.1645 59.5692L36.163 59.5674L35.3947 60.2075ZM31.8143 57.4861L32.1366 56.5395L32.1339 56.5386L31.8143 57.4861ZM31.0817 57.4861L30.5035 56.6702L30.4751 56.6904L30.4481 56.7125L31.0817 57.4861ZM30.8904 57.7761L31.8316 58.114L31.8457 58.0748L31.8564 58.0346L30.8904 57.7761ZM40.3087 63.9532C40.6795 62.839 40.6322 61.6471 40.4661 60.5699C40.3007 59.4963 39.9934 58.4098 39.7728 57.5384L37.8339 58.0292C38.0742 58.9784 38.343 59.9239 38.4895 60.8745C38.6354 61.8214 38.6359 62.646 38.411 63.3217L40.3087 63.9532ZM39.7721 57.5358C39.7382 57.4034 39.6677 57.1766 39.5121 56.9604C39.3414 56.7232 39.0218 56.445 38.5394 56.4202L38.4369 58.4176C38.3067 58.4109 38.1824 58.3694 38.0783 58.3039C37.9804 58.2424 37.9206 58.1729 37.8887 58.1286C37.8336 58.052 37.8272 58.0029 37.8346 58.0318L39.7721 57.5358ZM38.452 56.4196C38.2861 56.4256 38.1203 56.4604 37.9632 56.5247L38.721 58.3756C38.6557 58.4023 38.5891 58.4159 38.5243 58.4183L38.452 56.4196ZM37.9632 56.5247C37.8061 56.589 37.6572 56.6832 37.5282 56.807L38.9133 58.2497C38.8528 58.3078 38.7864 58.3488 38.721 58.3756L37.9632 56.5247ZM37.578 56.7623C36.6677 57.5261 36.3263 58.8059 36.1845 59.8333C36.0344 60.921 36.0694 62.0339 36.1382 62.7635L38.1294 62.5756C38.07 61.9455 38.043 60.9957 38.1657 60.1068C38.2968 59.1575 38.563 58.5466 38.8635 58.2945L37.578 56.7623ZM38.0168 62.2002C37.3595 60.9636 37.0034 60.581 36.1645 59.5692L34.6249 60.8457C35.4643 61.8581 35.6995 62.1016 36.2508 63.1389L38.0168 62.2002ZM36.163 59.5674C35.1751 58.3817 33.885 57.1348 32.1366 56.5395L31.492 58.4328C32.7219 58.8515 33.723 59.7632 34.6264 60.8476L36.163 59.5674ZM32.1339 56.5386C31.9773 56.4858 31.7471 56.4198 31.4903 56.405C31.2362 56.3903 30.856 56.4205 30.5035 56.6702L31.6599 58.302C31.5836 58.3561 31.5102 58.3816 31.4583 58.3929C31.4092 58.4035 31.3784 58.4018 31.3747 58.4016C31.3705 58.4014 31.3795 58.4016 31.4039 58.4072C31.4276 58.4126 31.4578 58.4212 31.4947 58.4337L32.1339 56.5386ZM30.4481 56.7125C30.2023 56.9138 30.0119 57.1905 29.9244 57.5177L31.8564 58.0346C31.8285 58.1391 31.7712 58.214 31.7153 58.2598L30.4481 56.7125ZM29.9492 57.4383C29.5234 58.6244 29.9822 59.8006 30.5311 60.6004L32.1802 59.4688C31.7986 58.9128 31.7183 58.4296 31.8316 58.114L29.9492 57.4383ZM30.5311 60.6004C30.6898 60.8317 31.4839 62.2775 32.7368 63.5391C34.0126 64.8238 35.9159 66.0943 38.4481 65.9808L38.3586 63.9828C36.604 64.0614 35.216 63.1972 34.1559 62.1298C33.073 61.0393 32.4866 59.9154 32.1802 59.4688L30.5311 60.6004Z" fill="white" mask="url(#path-77-inside-6_1_591)"/>
<mask id="path-79-inside-7_1_591" fill="white">
<path d="M39.917 68.2326C40.2974 67.0464 41.0772 65.9843 42.1577 65.1806C42.2728 65.0826 42.4183 65.0155 42.5767 64.9873C42.7258 64.9876 42.8696 65.0356 42.9801 65.122C43.0906 65.2084 43.16 65.3271 43.175 65.4551C43.1956 65.7138 43.1385 65.9728 43.0092 66.2069C42.2981 67.8421 41.5863 69.478 40.8738 71.1144"/>
</mask>
<path d="M42.1577 65.1806L42.7545 65.983L42.7808 65.9634L42.8057 65.9422L42.1577 65.1806ZM42.5767 64.9873L42.5788 63.9873L42.4894 63.9871L42.4013 64.0028L42.5767 64.9873ZM43.175 65.4551L44.1718 65.3756L44.1703 65.3572L44.1682 65.3389L43.175 65.4551ZM43.0092 66.2069L42.1338 65.7235L42.111 65.7648L42.0921 65.8082L43.0092 66.2069ZM40.8692 68.538C41.1807 67.5668 41.8271 66.6728 42.7545 65.983L41.5609 64.3782C40.3273 65.2958 39.4142 66.526 38.9648 67.9272L40.8692 68.538ZM42.8057 65.9422C42.7771 65.9666 42.7566 65.971 42.7521 65.9718L42.4013 64.0028C42.0801 64.06 41.7685 64.1987 41.5097 64.419L42.8057 65.9422ZM42.5746 65.9873C42.5163 65.9872 42.4405 65.9695 42.3641 65.9098L43.596 64.3342C43.2987 64.1017 42.9354 63.988 42.5788 63.9873L42.5746 65.9873ZM42.3641 65.9098C42.2848 65.8477 42.2007 65.7333 42.1817 65.5712L44.1682 65.3389C44.1193 64.9208 43.8964 64.569 43.596 64.3342L42.3641 65.9098ZM42.1781 65.5345C42.1827 65.5916 42.1714 65.6554 42.1338 65.7235L43.8845 66.6904C44.1056 66.2901 44.2085 65.8361 44.1718 65.3756L42.1781 65.5345ZM42.0921 65.8082C41.3811 67.4432 40.6694 69.0789 39.9569 70.7152L41.7906 71.5137C42.5032 69.877 43.2151 68.241 43.9262 66.6057L42.0921 65.8082Z" fill="white" mask="url(#path-79-inside-7_1_591)"/>
<mask id="path-81-inside-8_1_591" fill="white">
<path d="M40.244 72.5711C38.7844 71.0473 36.9058 69.8817 34.7892 69.1866C34.5336 69.0786 34.2455 69.046 33.9673 69.0936C33.3794 69.253 33.3107 69.9705 33.4631 70.4982C33.903 72.0282 35.1797 73.2582 36.4673 74.3383C37.7548 75.4184 39.1775 76.451 40.0594 77.8253"/>
</mask>
<path d="M34.7892 69.1866L34.4001 70.1078L34.438 70.1238L34.4772 70.1366L34.7892 69.1866ZM33.9673 69.0936L33.7987 68.1079L33.7517 68.1159L33.7056 68.1284L33.9673 69.0936ZM33.4631 70.4982L34.4241 70.2219L34.4238 70.2209L33.4631 70.4982ZM40.9661 71.8794C39.3867 70.2305 37.3647 68.9799 35.1012 68.2365L34.4772 70.1366C36.4469 70.7836 38.182 71.8641 39.5218 73.2628L40.9661 71.8794ZM35.1783 68.2654C34.7436 68.0818 34.2618 68.0287 33.7987 68.1079L34.1359 70.0793C34.2292 70.0633 34.3235 70.0754 34.4001 70.1078L35.1783 68.2654ZM33.7056 68.1284C32.9842 68.3241 32.6112 68.8823 32.4722 69.3972C32.3422 69.8787 32.3883 70.3806 32.5023 70.7756L34.4238 70.2209C34.4073 70.1636 34.3966 70.0994 34.3941 70.0383C34.3916 69.976 34.3984 69.9357 34.403 69.9185C34.4075 69.9018 34.4039 69.9283 34.3677 69.9691C34.3492 69.99 34.3256 70.0105 34.298 70.0277C34.2704 70.0448 34.2458 70.0542 34.2291 70.0587L33.7056 68.1284ZM32.502 70.7746C33.0351 72.6285 34.5447 74.0308 35.8246 75.1044L37.11 73.5722C35.8148 72.4857 34.7709 71.4279 34.4241 70.2219L32.502 70.7746ZM35.8246 75.1044C37.1993 76.2577 38.4425 77.1573 39.2178 78.3654L40.901 77.2852C39.9125 75.7448 38.3103 74.5791 37.11 73.5722L35.8246 75.1044Z" fill="white" mask="url(#path-81-inside-8_1_591)"/>
<mask id="path-83-inside-9_1_591" fill="white">
<path d="M41.222 80.7062C40.8028 80.0394 40.233 79.4528 39.5467 78.9813C38.8603 78.5097 38.0714 78.1629 37.2271 77.9616C36.5501 77.7778 35.8245 77.7778 35.1476 77.9616C35.0203 77.9948 34.9049 78.0558 34.8124 78.1387C34.5128 78.4428 34.859 78.8931 35.1786 79.1838C36.3989 80.294 37.4384 81.5438 38.268 82.8984C38.9737 84.0532 39.5996 85.3562 40.9312 85.9933"/>
</mask>
<path d="M37.2271 77.9616L36.9651 78.9266L36.9801 78.9307L36.9952 78.9343L37.2271 77.9616ZM35.1476 77.9616L35.4003 78.9292L35.4096 78.9266L35.1476 77.9616ZM34.8124 78.1387L34.145 77.394L34.1219 77.4147L34.1001 77.4368L34.8124 78.1387ZM35.1786 79.1838L35.8516 78.4441L35.8514 78.4439L35.1786 79.1838ZM38.268 82.8984L39.1213 82.3769L39.1208 82.3761L38.268 82.8984ZM42.0685 80.1739C41.5727 79.3852 40.9051 78.7013 40.1129 78.157L38.9804 79.8055C39.561 80.2043 40.0329 80.6937 40.3754 81.2384L42.0685 80.1739ZM40.1129 78.157C39.3209 77.6129 38.4178 77.2175 37.459 76.9889L36.9952 78.9343C37.725 79.1083 38.3997 79.4065 38.9804 79.8055L40.1129 78.157ZM37.4891 76.9965C36.6406 76.7661 35.7341 76.7661 34.8855 76.9965L35.4096 78.9266C35.915 78.7894 36.4597 78.7894 36.9651 78.9266L37.4891 76.9965ZM34.8948 76.9941C34.623 77.0651 34.3631 77.1985 34.145 77.394L35.4798 78.8834C35.4467 78.9131 35.4175 78.9246 35.4003 78.9291L34.8948 76.9941ZM34.1001 77.4368C33.8551 77.6855 33.7172 78.0011 33.6997 78.3372C33.6835 78.6464 33.7716 78.9097 33.8605 79.0963C34.0321 79.4565 34.3102 79.7456 34.5058 79.9236L35.8514 78.4439C35.7985 78.3958 35.7513 78.3471 35.7148 78.3029C35.676 78.2561 35.6645 78.2329 35.6661 78.2362C35.6677 78.2396 35.6762 78.2578 35.684 78.29C35.692 78.3226 35.7004 78.3747 35.6969 78.4416C35.6933 78.5106 35.6773 78.5873 35.6435 78.6637C35.6097 78.7399 35.5659 78.7988 35.5248 78.8405L34.1001 77.4368ZM34.5057 79.9234C35.6588 80.9725 36.6368 82.1497 37.4152 83.4207L39.1208 82.3761C38.2399 80.9378 37.1391 79.6154 35.8516 78.4441L34.5057 79.9234ZM37.4147 83.4199C38.0351 84.4349 38.8311 86.0971 40.4996 86.8953L41.3628 85.0912C40.3681 84.6153 39.9124 83.6715 39.1213 82.3769L37.4147 83.4199Z" fill="white" mask="url(#path-83-inside-9_1_591)"/>
<mask id="path-85-inside-10_1_591" fill="white">
<path d="M41.222 88.959C40.7717 88.9492 40.4069 88.6395 40.0591 88.3709C38.9453 87.5357 37.5889 87.0197 36.1586 86.8869C35.766 86.8496 35.3307 86.8555 35.0299 87.0829C34.8952 87.2044 34.7964 87.3556 34.743 87.5219C34.6897 87.6883 34.6834 87.8645 34.7247 88.0337C34.8134 88.3697 34.9697 88.6876 35.1856 88.9708C36.4989 90.9061 38.1118 92.6555 39.9737 94.1638"/>
</mask>
<path d="M40.0591 88.3709L40.6703 87.5794L40.6646 87.5751L40.659 87.5708L40.0591 88.3709ZM36.1586 86.8869L36.0642 87.8824L36.0661 87.8826L36.1586 86.8869ZM35.0299 87.0829L34.4269 86.2852L34.3922 86.3113L34.36 86.3405L35.0299 87.0829ZM34.7247 88.0337L33.7534 88.2712L33.7555 88.28L33.7578 88.2887L34.7247 88.0337ZM35.1856 88.9708L36.0131 88.4093L35.9976 88.3864L35.9808 88.3644L35.1856 88.9708ZM41.2437 87.9592C41.2436 87.9592 41.2422 87.9592 41.2387 87.9586C41.2351 87.9579 41.2284 87.9564 41.2179 87.9529C41.196 87.9455 41.1608 87.9304 41.1088 87.8998C40.9873 87.8284 40.8743 87.7369 40.6703 87.5794L39.4479 89.1624C39.5917 89.2734 39.835 89.4711 40.0954 89.6241C40.3717 89.7865 40.7446 89.9488 41.2002 89.9588L41.2437 87.9592ZM40.659 87.5708C39.3925 86.6212 37.8592 86.0405 36.2511 85.8911L36.0661 87.8826C37.3187 87.9989 38.4981 88.4503 39.4592 89.171L40.659 87.5708ZM36.2531 85.8913C35.8613 85.8542 35.0635 85.804 34.4269 86.2852L35.6329 87.8807C35.6001 87.9054 35.5996 87.8888 35.6879 87.8774C35.7768 87.8659 35.8996 87.8668 36.0642 87.8824L36.2531 85.8913ZM34.36 86.3405C34.0995 86.5755 33.9003 86.8754 33.7909 87.2164L35.6952 87.8275C35.6926 87.8357 35.6908 87.8334 35.6998 87.8254L34.36 86.3405ZM33.7909 87.2164C33.6812 87.558 33.668 87.9221 33.7534 88.2712L35.6961 87.7962C35.6973 87.8009 35.6979 87.8065 35.6977 87.8125C35.6975 87.8185 35.6965 87.8236 35.6952 87.8275L33.7909 87.2164ZM33.7578 88.2887C33.8808 88.7552 34.0967 89.1919 34.3904 89.5771L35.9808 88.3644C35.8427 88.1832 35.7459 87.9843 35.6917 87.7787L33.7578 88.2887ZM34.3581 89.5323C35.7278 91.5508 37.408 93.3723 39.3442 94.9409L40.6032 93.3868C38.8156 91.9387 37.2699 90.2615 36.0131 88.4093L34.3581 89.5323Z" fill="white" mask="url(#path-85-inside-10_1_591)"/>
<path d="M53.1555 122.175H29.6158L25.2383 97.083H57.5331L53.1555 122.175Z" stroke="white" stroke-miterlimit="10"/>
<path d="M163.05 100.253V119.005C163.05 120.376 161.598 121.675 159.57 121.675H115.664C113.633 121.675 112.183 120.382 112.183 119.005V100.253C112.183 98.8816 113.633 97.583 115.664 97.583H159.57C161.601 97.583 163.05 98.8763 163.05 100.253Z" stroke="white"/>
<mask id="path-89-inside-11_1_591" fill="white">
<path d="M111.683 119.101V100.449C111.683 98.5926 113.57 97.083 115.889 97.083H159.671C161.99 97.083 163.877 98.5926 163.877 100.449V119.101C163.877 120.957 161.99 122.467 159.671 122.467H115.889C113.57 122.467 111.683 120.957 111.683 119.101ZM163.406 100.449C163.406 98.8271 161.73 97.5093 159.671 97.5093H115.889C113.83 97.5093 112.154 98.8271 112.154 100.449V119.101C112.154 120.723 113.83 122.041 115.889 122.041H159.671C161.73 122.041 163.406 120.723 163.406 119.101V100.449Z"/>
</mask>
<path d="M112.683 119.101V100.449H110.683V119.101H112.683ZM112.683 100.449C112.683 99.3413 113.903 98.083 115.889 98.083V96.083C113.237 96.083 110.683 97.8439 110.683 100.449H112.683ZM115.889 98.083H159.671V96.083H115.889V98.083ZM159.671 98.083C161.657 98.083 162.877 99.3413 162.877 100.449H164.877C164.877 97.8439 162.323 96.083 159.671 96.083V98.083ZM162.877 100.449V119.101H164.877V100.449H162.877ZM162.877 119.101C162.877 120.209 161.657 121.467 159.671 121.467V123.467C162.323 123.467 164.877 121.706 164.877 119.101H162.877ZM159.671 121.467H115.889V123.467H159.671V121.467ZM115.889 121.467C113.903 121.467 112.683 120.209 112.683 119.101H110.683C110.683 121.706 113.237 123.467 115.889 123.467V121.467ZM164.406 100.449C164.406 98.0647 162.045 96.5093 159.671 96.5093V98.5093C161.414 98.5093 162.406 99.5894 162.406 100.449H164.406ZM159.671 96.5093H115.889V98.5093H159.671V96.5093ZM115.889 96.5093C113.514 96.5093 111.154 98.0647 111.154 100.449H113.154C113.154 99.5894 114.146 98.5093 115.889 98.5093V96.5093ZM111.154 100.449V119.101H113.154V100.449H111.154ZM111.154 119.101C111.154 121.485 113.514 123.041 115.889 123.041V121.041C114.146 121.041 113.154 119.96 113.154 119.101H111.154ZM115.889 123.041H159.671V121.041H115.889V123.041ZM159.671 123.041C162.045 123.041 164.406 121.485 164.406 119.101H162.406C162.406 119.96 161.414 121.041 159.671 121.041V123.041ZM164.406 119.101V100.449H162.406V119.101H164.406Z" fill="white" mask="url(#path-89-inside-11_1_591)"/>
<path d="M159.447 118.492V118.492C159.447 119.037 159.086 119.338 158.798 119.338H140.142C139.726 119.338 139.438 119.321 139.228 119.273C139.031 119.228 138.94 119.165 138.88 119.094C138.81 119.01 138.735 118.857 138.682 118.543C138.629 118.23 138.606 117.807 138.606 117.227C138.606 117.226 138.606 117.226 138.606 117.226L138.621 101.054V101.054C138.621 100.508 138.984 100.206 139.268 100.206H158.816C159.099 100.206 159.462 100.508 159.462 101.053C159.462 101.053 159.462 101.054 159.462 101.054L159.447 118.492Z" stroke="white"/>
<path d="M141.216 116.714V102.25H156.853V116.714H141.216Z" stroke="white"/>
<path d="M141.216 102.267V102.25H156.853V113.885L141.216 102.267Z" stroke="white"/>
<path d="M129.778 112.69C129.778 112.966 129.656 113.243 129.417 113.458C129.238 113.615 129.004 113.727 128.743 113.773C128.482 113.818 128.211 113.793 127.968 113.702C127.726 113.612 127.527 113.462 127.392 113.281C127.257 113.1 127.189 112.895 127.189 112.69C127.189 112.486 127.257 112.28 127.392 112.099C127.527 111.918 127.726 111.768 127.968 111.678C128.211 111.587 128.482 111.562 128.743 111.608C129.004 111.653 129.238 111.765 129.417 111.923C129.656 112.137 129.778 112.414 129.778 112.69Z" stroke="white"/>
<path d="M125.21 112.69C125.21 112.982 125.093 113.264 124.88 113.474C124.722 113.627 124.52 113.732 124.299 113.774C124.078 113.817 123.849 113.793 123.642 113.708C123.435 113.623 123.259 113.48 123.136 113.299C123.013 113.118 122.948 112.906 122.948 112.69C122.948 112.474 123.013 112.262 123.136 112.081C123.259 111.9 123.435 111.757 123.642 111.672C123.849 111.587 124.078 111.564 124.299 111.606C124.52 111.648 124.722 111.753 124.88 111.906C125.093 112.116 125.21 112.398 125.21 112.69Z" stroke="white"/>
<path d="M129.777 117.507C129.777 117.744 129.672 117.984 129.464 118.171C129.308 118.308 129.103 118.407 128.874 118.447C128.644 118.487 128.406 118.464 128.193 118.385C127.98 118.305 127.807 118.175 127.689 118.017C127.573 117.86 127.515 117.683 127.515 117.507C127.515 117.331 127.573 117.154 127.689 116.997C127.807 116.84 127.98 116.709 128.193 116.629C128.406 116.55 128.644 116.528 128.874 116.568C129.103 116.608 129.308 116.706 129.464 116.843C129.672 117.03 129.777 117.27 129.777 117.507Z" stroke="white"/>
<path d="M124.884 117.507C124.884 117.744 124.779 117.984 124.571 118.171C124.415 118.308 124.21 118.407 123.981 118.447C123.751 118.487 123.513 118.464 123.3 118.385C123.087 118.305 122.914 118.175 122.796 118.017C122.679 117.86 122.622 117.683 122.622 117.507C122.622 117.331 122.679 117.154 122.796 116.997C122.914 116.84 123.087 116.709 123.3 116.629C123.513 116.55 123.751 116.528 123.981 116.568C124.21 116.608 124.415 116.706 124.571 116.843C124.779 117.03 124.884 117.27 124.884 117.507Z" stroke="white"/>
<path d="M128.924 104.171H128.424V104.671V106.202C128.424 106.431 128.368 106.569 128.302 106.644C128.247 106.708 128.128 106.793 127.836 106.793C127.546 106.793 127.443 106.708 127.399 106.655C127.34 106.584 127.287 106.445 127.287 106.202V104.671V104.171H126.787H124.974C124.716 104.171 124.53 104.104 124.42 104.018C124.326 103.944 124.253 103.831 124.253 103.627C124.253 103.428 124.32 103.349 124.394 103.298C124.498 103.226 124.688 103.17 124.974 103.17H126.783H127.283V102.67V101.089C127.283 100.848 127.336 100.709 127.396 100.637C127.441 100.582 127.545 100.499 127.832 100.499C128.12 100.499 128.242 100.583 128.3 100.649C128.368 100.725 128.424 100.864 128.424 101.089V102.67V103.17H128.924H130.688C130.977 103.17 131.167 103.225 131.269 103.295C131.341 103.344 131.409 103.421 131.409 103.627C131.409 103.838 131.335 103.949 131.243 104.021C131.135 104.105 130.95 104.171 130.688 104.171H128.924Z" stroke="white"/>
<mask id="path-99-inside-12_1_591" fill="white">
<path d="M131.782 103.601C131.782 104.325 131.255 104.667 130.604 104.667H130.73C131.379 104.667 131.908 104.325 131.908 103.601C131.908 102.877 131.379 102.625 130.73 102.625H130.604C131.255 102.615 131.782 102.877 131.782 103.601Z"/>
</mask>
<path d="M130.604 102.625L130.589 101.625L130.604 103.625V102.625ZM130.782 103.601C130.782 103.66 130.772 103.676 130.776 103.667C130.781 103.656 130.791 103.642 130.801 103.634C130.808 103.628 130.802 103.636 130.769 103.647C130.735 103.657 130.681 103.667 130.604 103.667V105.667C131.091 105.667 131.633 105.54 132.074 105.177C132.541 104.791 132.782 104.229 132.782 103.601H130.782ZM130.604 105.667H130.73V103.667H130.604V105.667ZM130.73 105.667C131.217 105.667 131.759 105.54 132.198 105.177C132.666 104.792 132.908 104.231 132.908 103.601H130.908C130.908 103.659 130.898 103.675 130.902 103.666C130.907 103.655 130.917 103.642 130.927 103.634C130.933 103.628 130.927 103.636 130.894 103.647C130.86 103.657 130.806 103.667 130.73 103.667V105.667ZM132.908 103.601C132.908 102.962 132.656 102.396 132.146 102.03C131.693 101.704 131.157 101.625 130.73 101.625V103.625C130.83 103.625 130.902 103.635 130.947 103.646C130.993 103.658 130.996 103.666 130.979 103.653C130.969 103.647 130.957 103.636 130.943 103.62C130.93 103.604 130.92 103.588 130.913 103.573C130.898 103.542 130.908 103.542 130.908 103.601H132.908ZM130.73 101.625H130.604V103.625H130.73V101.625ZM130.618 103.625C130.715 103.623 130.783 103.633 130.825 103.643C130.867 103.653 130.868 103.661 130.85 103.647C130.84 103.64 130.828 103.629 130.815 103.614C130.802 103.598 130.792 103.582 130.785 103.569C130.772 103.54 130.782 103.542 130.782 103.601H132.782C132.782 102.965 132.533 102.397 132.024 102.028C131.568 101.697 131.027 101.619 130.589 101.625L130.618 103.625Z" fill="white" mask="url(#path-99-inside-12_1_591)"/>
<path d="M101.245 74.03H65.688V121.88H101.245V74.03Z" stroke="white" stroke-miterlimit="10"/>
<path d="M89.8347 91.5549C93.4102 88.3569 93.4102 83.1719 89.8347 79.9739C86.2592 76.7759 80.4622 76.7759 76.8866 79.9739C73.3111 83.1719 73.3111 88.3569 76.8866 91.5549C80.4622 94.7529 86.2592 94.7529 89.8347 91.5549Z" stroke="white" stroke-miterlimit="10"/>
<path d="M83.4147 88.8758C85.34 88.8533 86.8803 87.439 86.8551 85.717C86.8299 83.995 85.2487 82.6173 83.3234 82.6398C81.3982 82.6624 79.8578 84.0766 79.883 85.7986C79.9082 87.5207 81.4894 88.8984 83.4147 88.8758Z" stroke="white" stroke-miterlimit="10"/>
<path d="M91.8834 115.938C96.59 111.729 96.59 104.904 91.8834 100.694C87.1768 96.4842 79.546 96.4842 74.8394 100.694C70.1328 104.904 70.1328 111.729 74.8394 115.938C79.546 120.148 87.1768 120.148 91.8834 115.938Z" stroke="white" stroke-miterlimit="10"/>
<path d="M84.6983 112.235C87.1238 111.578 88.4945 109.287 87.7599 107.117C87.0253 104.948 84.4636 103.722 82.0381 104.379C79.6127 105.036 78.242 107.327 78.9766 109.497C79.7112 111.666 82.2729 112.892 84.6983 112.235Z" stroke="white" stroke-miterlimit="10"/>
<path d="M568.051 71.6982H532.494V119.548H568.051V71.6982Z" stroke="white" stroke-miterlimit="10"/>
<path d="M556.891 89.1997C560.466 86.0017 560.466 80.8167 556.891 77.6187C553.315 74.4207 547.518 74.4207 543.943 77.6187C540.367 80.8167 540.367 86.0017 543.943 89.1997C547.518 92.3977 553.315 92.3977 556.891 89.1997Z" stroke="white" stroke-miterlimit="10"/>
<path d="M550.436 86.5769C552.418 86.5769 554.024 85.2052 554.024 83.5133C554.024 81.8213 552.418 80.4497 550.436 80.4497C548.454 80.4497 546.848 81.8213 546.848 83.5133C546.848 85.2052 548.454 86.5769 550.436 86.5769Z" stroke="white" stroke-miterlimit="10"/>
<path d="M562.124 108.435C563.653 102.641 559.641 96.8351 553.163 95.4675C546.685 94.1 540.194 97.6885 538.665 103.483C537.136 109.277 541.148 115.082 547.626 116.45C554.104 117.818 560.595 114.229 562.124 108.435Z" stroke="white" stroke-miterlimit="10"/>
<path d="M550.436 110.211C552.958 110.211 555.003 108.317 555.003 105.981C555.003 103.644 552.958 101.75 550.436 101.75C547.913 101.75 545.869 103.644 545.869 105.981C545.869 108.317 547.913 110.211 550.436 110.211Z" stroke="white" stroke-miterlimit="10"/>
<path d="M441.482 196.716C441.482 194.716 440.632 192.791 439.103 191.329C437.575 189.868 435.482 188.978 433.247 188.84V186.362H414.733V207.077H433.247V204.596C435.483 204.458 437.576 203.567 439.105 202.105C440.633 200.642 441.483 198.716 441.482 196.716V196.716ZM433.247 201.778V191.654C434.646 191.788 435.941 192.379 436.882 193.313C437.822 194.248 438.343 195.46 438.343 196.716C438.343 197.972 437.822 199.184 436.882 200.118C435.941 201.053 434.646 201.644 433.247 201.778Z" stroke="white" stroke-miterlimit="10"/>
<path d="M324.372 248.8H300.885V269.808H324.372V248.8Z" stroke="white" stroke-miterlimit="10"/>
<path d="M323.067 249.675H302.19V268.64H323.067V249.675Z" stroke="white" stroke-miterlimit="10"/>
<path d="M317.063 254.638H307.867C306.713 254.638 305.778 255.485 305.778 256.529V261.5C305.778 262.545 306.713 263.391 307.867 263.391H317.063C318.217 263.391 319.152 262.545 319.152 261.5V256.529C319.152 255.485 318.217 254.638 317.063 254.638Z" stroke="white" stroke-miterlimit="10"/>
<path d="M309.692 259.597C310.053 259.597 310.345 259.336 310.345 259.014C310.345 258.691 310.053 258.43 309.692 258.43C309.332 258.43 309.04 258.691 309.04 259.014C309.04 259.336 309.332 259.597 309.692 259.597Z" stroke="white" stroke-miterlimit="10"/>
<path d="M315.565 259.014C315.565 259.129 315.536 259.242 315.483 259.338C315.429 259.434 315.352 259.509 315.263 259.553C315.174 259.597 315.075 259.609 314.98 259.586C314.885 259.564 314.798 259.508 314.73 259.426C314.661 259.345 314.615 259.241 314.596 259.128C314.577 259.014 314.587 258.897 314.624 258.79C314.661 258.684 314.723 258.593 314.804 258.529C314.884 258.464 314.979 258.43 315.076 258.43C315.206 258.43 315.33 258.492 315.422 258.601C315.514 258.711 315.565 258.859 315.565 259.014V259.014Z" stroke="white" stroke-miterlimit="10"/>
<path d="M383.836 199.491H379.717C377.497 199.491 375.368 200.29 373.798 201.713C372.228 203.135 371.346 205.065 371.346 207.077H392.224C392.224 206.079 392.007 205.091 391.585 204.17C391.163 203.249 390.545 202.412 389.766 201.707C388.987 201.002 388.062 200.444 387.044 200.064C386.027 199.683 384.936 199.489 383.836 199.491V199.491Z" stroke="white" stroke-miterlimit="10"/>
</svg>
