<svg width="43" height="24" viewBox="0 0 43 24" fill="none" xmlns="http://www.w3.org/2000/svg">
<path d="M41 10.5C41.8284 10.5 42.5 11.1716 42.5 12C42.5 12.8284 41.8284 13.5 41 13.5L41 10.5ZM0.939342 13.0607C0.353554 12.475 0.353554 11.5252 0.939339 10.9394L10.4853 1.39347C11.071 0.807678 12.0208 0.807675 12.6066 1.39346C13.1924 1.97924 13.1924 2.92899 12.6066 3.51478L4.12132 12.0001L12.6066 20.4853C13.1924 21.0711 13.1924 22.0209 12.6066 22.6067C12.0208 23.1925 11.0711 23.1925 10.4853 22.6067L0.939342 13.0607ZM41 13.5L2 13.5001L2 10.5001L41 10.5L41 13.5Z" fill="white"/>
</svg>
