<svg width="56" height="58" viewBox="0 0 56 58" fill="none" xmlns="http://www.w3.org/2000/svg">
<path d="M36.6237 35.6034H43.3602C45.6966 35.6034 47.5942 33.7058 47.5942 31.3694V26.6373C47.5942 24.3009 45.6966 22.4033 43.3602 22.4033H33.3385V25.6885L25.6533 18.5963L33.3385 12.3817V15.4297H43.3602C45.6966 15.4297 47.5942 17.3273 47.5942 19.6637V37.5959C47.5942 39.9323 45.6966 41.8299 43.3602 41.8299H36.9202" stroke="#8FC651" stroke-miterlimit="10"/>
<path d="M22.7946 22.083H16.0582C13.7218 22.083 11.8242 23.9806 11.8242 26.317V31.0491C11.8242 33.3855 13.7218 35.2831 16.0582 35.2831H26.0798V31.9979L33.7651 39.0901L26.0798 45.3047V42.2567H16.0582C13.7218 42.2567 11.8242 40.3591 11.8242 38.0227V20.1024C11.8242 17.766 13.7218 15.8684 16.0582 15.8684H22.4981" stroke="#8FC651" stroke-miterlimit="10"/>
<path d="M2.54971 41.9843C3.02132 41.9843 3.40363 41.602 3.40363 41.1304C3.40363 40.6588 3.02132 40.2765 2.54971 40.2765C2.07811 40.2765 1.6958 40.6588 1.6958 41.1304C1.6958 41.602 2.07811 41.9843 2.54971 41.9843Z" fill="#8FC651"/>
<path d="M35.0214 7.1518C35.493 7.1518 35.8753 6.76949 35.8753 6.29788C35.8753 5.82628 35.493 5.44397 35.0214 5.44397C34.5498 5.44397 34.1675 5.82628 34.1675 6.29788C34.1675 6.76949 34.5498 7.1518 35.0214 7.1518Z" fill="#8FC651"/>
<path d="M51.7812 16.7228C52.2528 16.7228 52.6351 16.3405 52.6351 15.8689C52.6351 15.3973 52.2528 15.015 51.7812 15.015C51.3096 15.015 50.9272 15.3973 50.9272 15.8689C50.9272 16.3405 51.3096 16.7228 51.7812 16.7228Z" fill="#8FC651"/>
<path d="M52.6225 31.4528C53.0941 31.4528 53.4764 31.0705 53.4764 30.5989C53.4764 30.1273 53.0941 29.745 52.6225 29.745C52.1509 29.745 51.7686 30.1273 51.7686 30.5989C51.7686 31.0705 52.1509 31.4528 52.6225 31.4528Z" fill="#8FC651"/>
<path d="M45.1742 9.97431C45.6458 9.97431 46.0281 9.592 46.0281 9.12039C46.0281 8.64879 45.6458 8.26648 45.1742 8.26648C44.7026 8.26648 44.3203 8.64879 44.3203 9.12039C44.3203 9.592 44.7026 9.97431 45.1742 9.97431Z" fill="#EB1C24"/>
<path d="M21.6562 52.8127C22.1278 52.8127 22.5101 52.4304 22.5101 51.9588C22.5101 51.4872 22.1278 51.1049 21.6562 51.1049C21.1846 51.1049 20.8022 51.4872 20.8022 51.9588C20.8022 52.4304 21.1846 52.8127 21.6562 52.8127Z" fill="#EB1C24"/>
<path d="M35.0229 57.4143C36.7652 57.4143 38.1776 56.0019 38.1776 54.2596C38.1776 52.5173 36.7652 51.1049 35.0229 51.1049C33.2806 51.1049 31.8682 52.5173 31.8682 54.2596C31.8682 56.0019 33.2806 57.4143 35.0229 57.4143Z" fill="#8FC651"/>
<path d="M6.64204 15.5369C8.38435 15.5369 9.79678 14.1245 9.79678 12.3822C9.79678 10.6398 8.38435 9.22742 6.64204 9.22742C4.89973 9.22742 3.4873 10.6398 3.4873 12.3822C3.4873 14.1245 4.89973 15.5369 6.64204 15.5369Z" fill="#8FC651"/>
<path d="M0.853913 32.3067C1.32552 32.3067 1.70783 31.9244 1.70783 31.4528C1.70783 30.9812 1.32552 30.5989 0.853913 30.5989C0.38231 30.5989 0 30.9812 0 31.4528C0 31.9244 0.38231 32.3067 0.853913 32.3067Z" fill="#EB1C24"/>
<path d="M51.7812 26.507C52.2528 26.507 52.6351 26.1247 52.6351 25.6531C52.6351 25.1815 52.2528 24.7992 51.7812 24.7992C51.3096 24.7992 50.9272 25.1815 50.9272 25.6531C50.9272 26.1247 51.3096 26.507 51.7812 26.507Z" fill="#EB1C24"/>
<path d="M40.3827 43.6802C40.8543 43.6802 41.2366 43.2979 41.2366 42.8263C41.2366 42.3547 40.8543 41.9724 40.3827 41.9724C39.9111 41.9724 39.5288 42.3547 39.5288 42.8263C39.5288 43.2979 39.9111 43.6802 40.3827 43.6802Z" fill="#EB1C24"/>
<path d="M53.8203 47.3569C54.9535 47.3569 55.8721 46.4383 55.8721 45.3052C55.8721 44.172 54.9535 43.2534 53.8203 43.2534C52.6872 43.2534 51.7686 44.172 51.7686 45.3052C51.7686 46.4383 52.6872 47.3569 53.8203 47.3569Z" fill="#EB1C24"/>
<path d="M8.68165 48.626C9.81481 48.626 10.7334 47.7074 10.7334 46.5742C10.7334 45.4411 9.81481 44.5225 8.68165 44.5225C7.54849 44.5225 6.62988 45.4411 6.62988 46.5742C6.62988 47.7074 7.54849 48.626 8.68165 48.626Z" fill="#EB1C24"/>
<path d="M25.6523 6.3096C27.3946 6.3096 28.807 4.89717 28.807 3.15486C28.807 1.41255 27.3946 0.00012207 25.6523 0.00012207C23.91 0.00012207 22.4976 1.41255 22.4976 3.15486C22.4976 4.89717 23.91 6.3096 25.6523 6.3096Z" fill="#EB1C24"/>
</svg>
