<svg width="33" height="33" viewBox="0 0 33 33" fill="none" xmlns="http://www.w3.org/2000/svg">
<path d="M33 16.5C33 25.6127 25.6127 33 16.5 33C7.3873 33 0 25.6127 0 16.5C0 7.3873 7.3873 0 16.5 0C25.6127 0 33 7.3873 33 16.5Z" fill="#0052B5"/>
<path d="M12.375 9.075V0.519822C13.0469 0.346889 13.7353 0.215213 14.4375 0.127656C15.1132 0.0434019 15.8015 0 16.5 0C17.1985 0 17.8868 0.0434019 18.5625 0.127656C19.2647 0.215213 19.9531 0.346889 20.625 0.519822V11.3438L27.6375 4.32587C28.3934 5.01781 29.496 6.39797 30.1125 7.21875L24.75 12.375H32.4802C32.6531 13.0469 32.7848 13.7353 32.8723 14.4375C32.9566 15.1132 33 15.8015 33 16.5C33 17.1985 32.9566 17.8868 32.8723 18.5625C32.7848 19.2647 32.6531 19.9531 32.4802 20.625H23.5125L29.7012 26.4C28.8143 27.5808 27.7726 28.6388 26.6062 29.5437L20.625 23.5125V32.4802C19.9531 32.6531 19.2647 32.7848 18.5625 32.8723C17.8868 32.9566 17.1985 33 16.5 33C15.8015 33 15.1132 32.9566 14.4375 32.8723C13.7353 32.7848 13.0469 32.6531 12.375 32.4802L12.375 21.8625L5.56875 28.8598C4.6457 28.0428 3.81483 27.124 3.09375 26.121L9.075 20.625H0.519822C0.34689 19.9531 0.215214 19.2647 0.127657 18.5625C0.0434022 17.8868 0 17.1985 0 16.5C0 15.8015 0.0434019 15.1132 0.127656 14.4375C0.215213 13.7353 0.346889 13.0469 0.519822 12.375H9.28125L3.3 6.59839C4.21547 5.37991 5.29571 4.29231 6.50766 3.36866L12.375 9.075Z" fill="white"/>
<path d="M12.375 12.375L4.84478 4.82071C4.4466 5.21807 4.06861 5.63567 3.7125 6.07183L10.3125 12.375H12.375Z" fill="#D90026"/>
<path d="M20.625 12.375L28.1552 4.8207C28.5534 5.21807 28.9314 5.63567 29.2875 6.07183L22.6875 12.375H20.625Z" fill="#D90026"/>
<path d="M20.625 20.7666L28.1552 28.3209C28.5534 27.9235 28.9314 27.5059 29.2875 27.0698L22.6875 20.7666H20.625Z" fill="#D90026"/>
<path d="M12.375 20.7666L4.84478 28.3209C4.4466 27.9235 4.06861 27.5059 3.7125 27.0698L10.3125 20.7666H12.375Z" fill="#D90026"/>
<path d="M0.127656 14.4375C0.0434019 15.1132 0 15.8015 0 16.5C0 17.1985 0.0434022 17.8868 0.127657 18.5625H14.4375V32.8723C15.1132 32.9566 15.8015 33 16.5 33C17.1985 33 17.8868 32.9566 18.5625 32.8723V18.5625H32.8723C32.9566 17.8868 33 17.1985 33 16.5C33 15.8015 32.9566 15.1132 32.8723 14.4375H18.5625V0.127656C17.7552 0.0062149 17.3412 0 16.5 0C15.8015 0 15.1132 0.0434019 14.4375 0.127656V14.4375H0.127656Z" fill="#D90026"/>
</svg>
