<svg width="34" height="34" viewBox="0 0 34 34" fill="none" xmlns="http://www.w3.org/2000/svg">
<path d="M16.5405 33.0811C7.40546 33.0811 6.50708e-06 25.6756 6.90638e-06 16.5405C7.30569e-06 7.40545 7.40546 -1.12232e-06 16.5405 -7.2301e-07C25.6756 -3.23703e-07 33.0811 7.40545 33.0811 16.5405C33.0811 25.6756 25.6756 33.0811 16.5405 33.0811Z" fill="white"/>
<path d="M16.5405 -7.2301e-07C7.40546 -1.12232e-06 7.30569e-06 7.40545 6.90638e-06 16.5405L33.0811 16.5405C33.0811 7.40545 25.6756 -3.23703e-07 16.5405 -7.2301e-07Z" fill="#E80505"/>
<path d="M16.5405 32.8311C7.54353 32.8311 0.250007 25.5376 0.250007 16.5405C0.250007 7.54352 7.54353 0.249999 16.5405 0.249999C25.5376 0.25 32.8311 7.54352 32.8311 16.5405C32.8311 25.5376 25.5376 32.8311 16.5405 32.8311Z" stroke="#3F3F3F" stroke-width="0.5"/>
</svg>
